<svg width="22" height="24" viewBox="0 0 22 24" fill="none" xmlns="http://www.w3.org/2000/svg">
<path d="M9.05882 0.229492C7.68594 0.229492 6.36928 0.802278 5.39851 1.82184C4.42773 2.84141 3.88235 4.22423 3.88235 5.66611C3.88235 7.108 4.42773 8.49082 5.39851 9.51039C6.36928 10.53 7.68594 11.1027 9.05882 11.1027C10.4317 11.1027 11.7484 10.53 12.7191 9.51039C13.6899 8.49082 14.2353 7.108 14.2353 5.66611C14.2353 4.22423 13.6899 2.84141 12.7191 1.82184C11.7484 0.802278 10.4317 0.229492 9.05882 0.229492ZM5.17647 5.66611C5.17647 4.5847 5.5855 3.54758 6.31359 2.78291C7.04167 2.01824 8.02916 1.58865 9.05882 1.58865C10.0885 1.58865 11.076 2.01824 11.8041 2.78291C12.5321 3.54758 12.9412 4.5847 12.9412 5.66611C12.9412 6.74752 12.5321 7.78465 11.8041 8.54932C11.076 9.31399 10.0885 9.74358 9.05882 9.74358C8.02916 9.74358 7.04167 9.31399 6.31359 8.54932C5.5855 7.78465 5.17647 6.74752 5.17647 5.66611ZM2.59988 12.4619C2.25901 12.4603 1.9212 12.5294 1.60583 12.6653C1.29047 12.8012 1.00376 13.0011 0.76219 13.2537C0.520615 13.5063 0.328925 13.8065 0.198126 14.1371C0.0673273 14.4677 -3.45124e-06 14.8222 1.32681e-10 15.1802C1.32681e-10 17.4785 1.078 19.2115 2.76294 20.3409C4.422 21.4513 6.65824 21.976 9.05882 21.976C9.59114 21.976 10.1131 21.9502 10.6247 21.8985C10.3159 21.4948 10.0479 21.0584 9.82494 20.5964C9.57388 20.61 9.31851 20.6168 9.05882 20.6168C6.81353 20.6168 4.84388 20.1221 3.45918 19.1938C2.10035 18.2832 1.29412 16.9607 1.29412 15.1802C1.29412 14.4286 1.87388 13.821 2.59988 13.821H9.834C10.073 13.3336 10.3568 12.8805 10.6855 12.4619H2.59988ZM15.3676 14.5006C15.3676 14.2753 15.4529 14.0593 15.6045 13.9C15.7562 13.7406 15.962 13.6512 16.1765 13.6512C16.391 13.6512 16.5967 13.7406 16.7484 13.9C16.9001 14.0593 16.9853 14.2753 16.9853 14.5006C16.9853 14.7259 16.9001 14.942 16.7484 15.1013C16.5967 15.2606 16.391 15.3501 16.1765 15.3501C15.962 15.3501 15.7562 15.2606 15.6045 15.1013C15.4529 14.942 15.3676 14.7259 15.3676 14.5006ZM16.8235 19.9372C16.8235 20.1175 16.7554 20.2903 16.634 20.4178C16.5127 20.5452 16.3481 20.6168 16.1765 20.6168C16.0049 20.6168 15.8403 20.5452 15.7189 20.4178C15.5976 20.2903 15.5294 20.1175 15.5294 19.9372V17.2189C15.5294 17.0387 15.5976 16.8658 15.7189 16.7384C15.8403 16.611 16.0049 16.5394 16.1765 16.5394C16.3481 16.5394 16.5127 16.611 16.634 16.7384C16.7554 16.8658 16.8235 17.0387 16.8235 17.2189V19.9372ZM10.3529 17.2189C10.3529 15.5968 10.9665 14.0411 12.0586 12.8941C13.1507 11.7471 14.632 11.1027 16.1765 11.1027C17.721 11.1027 19.2022 11.7471 20.2943 12.8941C21.3864 14.0411 22 15.5968 22 17.2189C22 18.8411 21.3864 20.3967 20.2943 21.5437C19.2022 22.6908 17.721 23.3351 16.1765 23.3351C14.632 23.3351 13.1507 22.6908 12.0586 21.5437C10.9665 20.3967 10.3529 18.8411 10.3529 17.2189ZM11.6471 17.2189C11.6471 17.8436 11.7642 18.4622 11.9918 19.0394C12.2195 19.6165 12.5531 20.1409 12.9737 20.5827C13.3943 21.0244 13.8936 21.3748 14.4431 21.6139C14.9927 21.8529 15.5817 21.976 16.1765 21.976C16.7713 21.976 17.3603 21.8529 17.9098 21.6139C18.4593 21.3748 18.9587 21.0244 19.3792 20.5827C19.7998 20.1409 20.1335 19.6165 20.3611 19.0394C20.5887 18.4622 20.7059 17.8436 20.7059 17.2189C20.7059 15.9573 20.2287 14.7473 19.3792 13.8552C18.5298 12.9631 17.3777 12.4619 16.1765 12.4619C14.9752 12.4619 13.8231 12.9631 12.9737 13.8552C12.1243 14.7473 11.6471 15.9573 11.6471 17.2189Z" fill="url(#paint0_linear_167_1600)"/>
<defs>
<linearGradient id="paint0_linear_167_1600" x1="11" y1="0.229492" x2="11" y2="23.3351" gradientUnits="userSpaceOnUse">
<stop stop-color="#5558B5"/>
<stop offset="1" stop-color="#1C1F6A"/>
</linearGradient>
</defs>
</svg>
