<?xml version="1.0" standalone="no"?>
<!DOCTYPE svg PUBLIC "-//W3C//DTD SVG 20010904//EN"
 "http://www.w3.org/TR/2001/REC-SVG-20010904/DTD/svg10.dtd">
<svg version="1.0" xmlns="http://www.w3.org/2000/svg"
 width="707.000000pt" height="353.000000pt" viewBox="0 0 707.000000 353.000000"
 preserveAspectRatio="xMidYMid meet">

<g transform="translate(0.000000,353.000000) scale(0.100000,-0.100000)"
fill="#000000" stroke="none">
<path d="M801 2219 c-62 -12 -115 -50 -148 -106 -57 -97 -29 -208 117 -477 44
-81 68 -116 79 -114 19 4 171 297 200 386 27 81 26 125 -3 189 -27 57 -86 107
-139 118 -18 4 -39 8 -47 10 -8 1 -35 -1 -59 -6z m116 -99 c46 -28 67 -65 67
-120 0 -160 -230 -191 -272 -37 -17 60 9 126 61 157 41 25 103 25 144 0z"/>
<path d="M798 2084 c-35 -18 -48 -43 -48 -89 0 -65 69 -110 131 -85 66 28 81
109 30 161 -33 33 -70 37 -113 13z"/>
<path d="M6158 2216 c-75 -27 -123 -76 -147 -145 -17 -52 -13 -93 15 -173 44
-122 179 -378 199 -378 29 0 207 369 221 458 24 153 -144 292 -288 238z m157
-107 c86 -76 55 -207 -57 -241 -91 -27 -190 63 -172 159 4 24 20 51 44 76 35
34 42 37 93 37 49 0 61 -4 92 -31z"/>
<path d="M6159 2071 c-39 -40 -41 -97 -3 -135 60 -60 164 -17 164 68 0 52 -44
96 -95 96 -27 0 -44 -8 -66 -29z"/>
<path d="M3907 1942 c-3 -4 3 -52 13 -107 24 -125 25 -155 5 -155 -25 0 -18
-38 7 -42 20 -3 25 -12 35 -68 6 -36 10 -66 10 -66 -1 -1 -83 -7 -181 -13
l-179 -12 -57 56 c-51 51 -80 68 -80 46 0 -4 18 -40 40 -78 l41 -70 -41 -70
c-22 -38 -40 -73 -40 -77 0 -20 35 1 82 50 l53 55 180 -11 c99 -7 181 -13 182
-13 0 -1 -4 -31 -10 -67 -10 -56 -15 -65 -35 -68 -27 -4 -29 -32 -3 -39 18 -4
18 -7 0 -111 -11 -59 -21 -117 -24 -129 -5 -21 -2 -23 35 -23 49 0 46 -5 150
225 45 99 86 184 91 189 4 5 86 10 181 10 165 1 176 2 230 28 56 26 83 54 70
75 -12 19 -86 52 -137 62 -28 4 -115 6 -194 2 -137 -6 -144 -5 -156 14 -7 11
-50 102 -95 203 -46 102 -92 189 -104 198 -22 15 -62 19 -69 6z"/>
<path d="M6210 1482 c-56 -19 -26 -105 30 -87 21 7 36 46 25 64 -10 17 -39 29
-55 23z"/>
<path d="M812 1468 c-28 -28 -7 -78 33 -78 12 0 26 5 33 12 7 7 12 21 12 33 0
12 -5 26 -12 33 -7 7 -21 12 -33 12 -12 0 -26 -5 -33 -12z"/>
<path d="M930 1435 c0 -24 2 -25 65 -25 63 0 65 1 65 25 0 24 -2 25 -65 25
-63 0 -65 -1 -65 -25z"/>
<path d="M1120 1435 c0 -24 2 -25 65 -25 63 0 65 1 65 25 0 24 -2 25 -65 25
-63 0 -65 -1 -65 -25z"/>
<path d="M1310 1435 c0 -24 2 -25 65 -25 63 0 65 1 65 25 0 24 -2 25 -65 25
-63 0 -65 -1 -65 -25z"/>
<path d="M1490 1435 c0 -24 2 -25 70 -25 68 0 70 1 70 25 0 24 -2 25 -70 25
-68 0 -70 -1 -70 -25z"/>
<path d="M1680 1435 c0 -24 2 -25 70 -25 68 0 70 1 70 25 0 24 -2 25 -70 25
-68 0 -70 -1 -70 -25z"/>
<path d="M1870 1435 c0 -26 1 -26 68 -23 61 3 67 5 70 26 3 21 0 22 -67 22
-69 0 -71 -1 -71 -25z"/>
<path d="M2060 1435 c0 -24 2 -25 65 -25 63 0 65 1 65 25 0 24 -2 25 -65 25
-63 0 -65 -1 -65 -25z"/>
<path d="M2250 1435 c0 -24 2 -25 65 -25 63 0 65 1 65 25 0 24 -2 25 -65 25
-63 0 -65 -1 -65 -25z"/>
<path d="M2440 1435 c0 -24 2 -25 65 -25 63 0 65 1 65 25 0 24 -2 25 -65 25
-63 0 -65 -1 -65 -25z"/>
<path d="M2622 1438 c3 -21 9 -23 71 -26 66 -3 67 -3 67 23 0 24 -2 25 -71 25
-67 0 -70 -1 -67 -22z"/>
<path d="M2810 1435 c0 -24 2 -25 70 -25 68 0 70 1 70 25 0 24 -2 25 -70 25
-68 0 -70 -1 -70 -25z"/>
<path d="M3000 1435 c0 -26 1 -26 68 -23 61 3 67 5 70 26 3 21 0 22 -67 22
-69 0 -71 -1 -71 -25z"/>
<path d="M3190 1435 c0 -24 2 -25 65 -25 63 0 65 1 65 25 0 24 -2 25 -65 25
-63 0 -65 -1 -65 -25z"/>
<path d="M3380 1435 c0 -24 2 -25 65 -25 63 0 65 1 65 25 0 24 -2 25 -65 25
-63 0 -65 -1 -65 -25z"/>
<path d="M4700 1435 c0 -24 2 -25 65 -25 63 0 65 1 65 25 0 24 -2 25 -65 25
-63 0 -65 -1 -65 -25z"/>
<path d="M4888 1454 c-3 -3 -4 -14 -1 -25 5 -16 14 -19 69 -19 62 0 64 1 64
25 0 24 -2 25 -63 25 -35 0 -66 -3 -69 -6z"/>
<path d="M5070 1435 c0 -24 2 -25 70 -25 68 0 70 1 70 25 0 24 -2 25 -70 25
-68 0 -70 -1 -70 -25z"/>
<path d="M5260 1435 c0 -24 2 -25 70 -25 68 0 70 1 70 25 0 24 -2 25 -70 25
-68 0 -70 -1 -70 -25z"/>
<path d="M5450 1435 c0 -24 2 -25 65 -25 63 0 65 1 65 25 0 24 -2 25 -65 25
-63 0 -65 -1 -65 -25z"/>
<path d="M5640 1435 c0 -24 2 -25 65 -25 63 0 65 1 65 25 0 24 -2 25 -65 25
-63 0 -65 -1 -65 -25z"/>
<path d="M5830 1435 c0 -24 2 -25 65 -25 63 0 65 1 65 25 0 24 -2 25 -65 25
-63 0 -65 -1 -65 -25z"/>
<path d="M6020 1435 c0 -24 3 -25 58 -25 66 0 72 3 65 31 -5 16 -14 19 -64 19
-56 0 -59 -1 -59 -25z"/>
</g>
</svg>
