<svg width="37" height="42" viewBox="0 0 37 42" fill="none" xmlns="http://www.w3.org/2000/svg">
<path d="M33.3131 19.4518H36.976C36.976 8.82373 29.8828 0.808105 20.4747 0.808105V4.95162C27.914 4.95162 33.3131 11.0488 33.3131 19.4518Z" fill="url(#paint0_linear_324_27)"/>
<path d="M19.6172 13.079C23.7426 13.079 25.5022 15.0553 25.5022 19.6887H29.4256C29.4256 12.5832 25.9436 8.6725 19.6172 8.6725V13.079ZM26.3301 25.0712C25.9531 24.6864 25.4578 24.4812 24.9487 24.4989C24.4395 24.5165 23.9564 24.7557 23.6014 25.1659L18.9071 30.5881C17.7772 30.3457 15.5056 29.5504 13.1673 26.9307C10.829 24.3023 10.1208 21.7443 9.9109 20.4841L14.7346 15.2095C15.1003 14.811 15.3136 14.2683 15.3293 13.6963C15.3451 13.1243 15.1621 12.5679 14.819 12.1448L7.57063 3.19305C7.22742 2.76861 6.75042 2.51116 6.24092 2.47537C5.73142 2.43958 5.22957 2.62827 4.84195 3.00137L0.585131 7.10159C0.24598 7.48389 0.043552 7.99269 0.0162465 8.53149C-0.0131786 9.0823 -0.574215 22.1299 8.43376 32.2515C16.2922 41.0755 26.1359 41.721 28.8469 41.721C29.2431 41.721 29.4864 41.7078 29.5511 41.7034C30.0308 41.6733 30.4836 41.4449 30.8223 41.0623L34.471 36.2791C34.8034 35.844 34.9718 35.2805 34.9403 34.7083C34.9088 34.136 34.6799 33.6001 34.3023 33.2143L26.3301 25.0712Z" fill="url(#paint1_linear_324_27)"/>
<defs>
<linearGradient id="paint0_linear_324_27" x1="28.7253" y1="0.808105" x2="28.7253" y2="19.4518" gradientUnits="userSpaceOnUse">
<stop stop-color="#5558B5"/>
<stop offset="1" stop-color="#1C1F6A"/>
</linearGradient>
<linearGradient id="paint1_linear_324_27" x1="17.472" y1="2.47107" x2="17.472" y2="41.721" gradientUnits="userSpaceOnUse">
<stop stop-color="#5558B5"/>
<stop offset="1" stop-color="#1C1F6A"/>
</linearGradient>
</defs>
</svg>
