<svg width="22" height="24" viewBox="0 0 22 24" fill="none" xmlns="http://www.w3.org/2000/svg">
<path d="M10 0.839294C8.6209 0.839294 7.29826 1.39613 6.32307 2.38731C5.34788 3.37848 4.80002 4.72281 4.80002 6.12454C4.80002 7.52627 5.34788 8.8706 6.32307 9.86177C7.29826 10.853 8.6209 11.4098 10 11.4098C11.3792 11.4098 12.7018 10.853 13.677 9.86177C14.6522 8.8706 15.2 7.52627 15.2 6.12454C15.2 4.72281 14.6522 3.37848 13.677 2.38731C12.7018 1.39613 11.3792 0.839294 10 0.839294ZM6.10002 6.12454C6.10002 5.07324 6.51092 4.065 7.24231 3.32162C7.9737 2.57823 8.96568 2.16061 10 2.16061C11.0344 2.16061 12.0264 2.57823 12.7577 3.32162C13.4891 4.065 13.9 5.07324 13.9 6.12454C13.9 7.17584 13.4891 8.18408 12.7577 8.92747C12.0264 9.67085 11.0344 10.0885 10 10.0885C8.96568 10.0885 7.9737 9.67085 7.24231 8.92747C6.51092 8.18408 6.10002 7.17584 6.10002 6.12454ZM3.51172 12.7311C3.1693 12.7295 2.82995 12.7967 2.51315 12.9288C2.19636 13.0609 1.90835 13.2553 1.66568 13.5009C1.42301 13.7464 1.23044 14.0383 1.09905 14.3597C0.967658 14.6811 0.900021 15.0257 0.900024 15.3737C0.900024 17.6081 1.98292 19.2927 3.67552 20.3907C5.34212 21.4703 7.58852 21.9803 10 21.9803C10.4646 21.9803 10.9222 21.9613 11.3728 21.9235C11.2742 21.4862 11.2764 21.0317 11.3793 20.5955C10.933 20.6378 10.4732 20.659 10 20.659C7.74452 20.659 5.76592 20.178 4.37492 19.2756C3.00992 18.3903 2.20002 17.1046 2.20002 15.3737C2.20002 14.643 2.78242 14.0524 3.51172 14.0524H15.8799C15.8658 13.7047 15.921 13.3577 16.0424 13.0324L16.1542 12.7311H3.51172ZM17.2592 13.5001L17.6271 12.5091C17.9625 11.6093 19.0077 11.1653 19.8891 11.5472L20.3935 11.7665C21.0084 12.0334 21.5167 12.517 21.6246 13.1671C22.2187 16.7677 19.1442 21.8891 15.6056 23.1959C14.966 23.4311 14.2757 23.2487 13.7271 22.8708L13.2773 22.5603C13.0927 22.4339 12.9372 22.2683 12.8216 22.0748C12.706 21.8814 12.6331 21.6648 12.6079 21.4399C12.5827 21.2151 12.6058 20.9874 12.6756 20.7725C12.7454 20.5576 12.8602 20.3606 13.0121 20.1952L13.7206 19.3932C13.887 19.2069 14.0994 19.0691 14.3357 18.9941C14.572 18.9191 14.8237 18.9095 15.0648 18.9664L16.6573 19.3495C17.9201 18.548 18.5969 17.4204 18.6879 15.967L17.5465 14.832C17.3761 14.6627 17.258 14.4463 17.207 14.2097C17.1559 13.973 17.1741 13.7264 17.2592 13.5001Z" fill="url(#paint0_linear_167_1602)"/>
<defs>
<linearGradient id="paint0_linear_167_1602" x1="11.2993" y1="0.839294" x2="11.2993" y2="23.3009" gradientUnits="userSpaceOnUse">
<stop stop-color="#5558B5"/>
<stop offset="1" stop-color="#1C1F6A"/>
</linearGradient>
</defs>
</svg>
