<svg width="46" height="44" viewBox="0 0 46 44" fill="none" xmlns="http://www.w3.org/2000/svg">
<path fill-rule="evenodd" clip-rule="evenodd" d="M0.827332 7.47902C0.827332 3.80337 3.94396 0.823669 7.78853 0.823669H38.4178C42.2623 0.823669 45.379 3.80337 45.379 7.47902V36.7626C45.379 40.4382 42.2623 43.4179 38.4178 43.4179H7.78853C3.94396 43.4179 0.827332 40.4382 0.827332 36.7626V7.47902ZM23.1032 11.4722C29.229 11.4722 34.2411 16.2641 34.2411 22.1208C34.2411 27.4451 30.2036 31.9707 24.6346 32.7694V25.1823H27.2799L27.8368 22.1208H24.7738V20.1242C24.7738 19.3255 25.1915 18.5269 26.5837 18.5269H27.976V15.8648C27.976 15.8648 26.723 15.5986 25.47 15.5986C22.9639 15.5986 21.2932 17.0627 21.2932 19.7249V22.1208H18.5088V25.1823H21.2932V32.6363C16.0027 31.8376 11.9652 27.4451 11.9652 22.1208C11.9652 16.2641 16.9773 11.4722 23.1032 11.4722Z" fill="url(#paint0_linear_167_1644)"/>
<defs>
<linearGradient id="paint0_linear_167_1644" x1="23.1032" y1="0.823669" x2="23.1032" y2="43.4179" gradientUnits="userSpaceOnUse">
<stop stop-color="#5558B5"/>
<stop offset="1" stop-color="#1C1F6A"/>
</linearGradient>
</defs>
</svg>
