<svg width="46" height="44" viewBox="0 0 46 44" fill="none" xmlns="http://www.w3.org/2000/svg">
<path fill-rule="evenodd" clip-rule="evenodd" d="M0.828125 7.47908C0.828125 3.80343 3.94476 0.82373 7.78932 0.82373H38.4186C42.2631 0.82373 45.3798 3.80343 45.3798 7.47908V36.7626C45.3798 40.4383 42.2631 43.418 38.4186 43.418H7.78932C3.94476 43.418 0.828125 40.4383 0.828125 36.7626V7.47908ZM23.1039 11.4723C29.2298 11.4723 34.2419 16.2641 34.2419 22.1209C34.2419 27.4451 30.2044 31.9708 24.6354 32.7694V25.1823H27.2807L27.8376 22.1209H24.7746V20.1243C24.7746 19.3256 25.1923 18.527 26.5845 18.527H27.9768V15.8648C27.9768 15.8648 26.7238 15.5986 25.4708 15.5986C22.9647 15.5986 21.294 17.0628 21.294 19.7249V22.1209H18.5096V25.1823H21.294V32.6363C16.0035 31.8377 11.966 27.4451 11.966 22.1209C11.966 16.2641 16.9781 11.4723 23.1039 11.4723Z" fill="#193E7F"/>
</svg>
