<svg width="21" height="24" viewBox="0 0 21 24" fill="none" xmlns="http://www.w3.org/2000/svg">
<path d="M8.00174 18.6354C7.58792 19.0982 7.28932 19.6549 7.13097 20.2591C6.97262 20.8632 6.95914 21.4971 7.09166 22.1076C2.60424 21.464 0 18.2479 0 15.1117V14.2228C0 13.5155 0.276587 12.8372 0.768916 12.3371C1.26124 11.837 1.92899 11.556 2.62524 11.556H13.1665C13.2015 12.4147 13.5515 13.2468 14.1851 13.8761L15.0916 14.7757C14.9119 15.5648 14.4722 16.2679 13.8455 16.7687L12.4717 16.438C11.8406 16.2874 11.1813 16.3115 10.5625 16.5079C9.94378 16.7043 9.38823 17.0657 8.95383 17.5545L8.00174 18.6354ZM8.75081 0C10.0273 0 11.2515 0.515099 12.1541 1.43198C13.0567 2.34886 13.5638 3.59242 13.5638 4.88909C13.5638 6.18575 13.0567 7.42931 12.1541 8.34619C11.2515 9.26308 10.0273 9.77817 8.75081 9.77817C7.47434 9.77817 6.25015 9.26308 5.34754 8.34619C4.44494 7.42931 3.93786 6.18575 3.93786 4.88909C3.93786 3.59242 4.44494 2.34886 5.34754 1.43198C6.25015 0.515099 7.47434 0 8.75081 0ZM15.0234 10.8111L15.5187 9.47772C15.9702 8.26878 17.3774 7.67142 18.564 8.18522L19.243 8.48034C20.0709 8.83947 20.7569 9.49016 20.9004 10.3649C21.7003 15.2095 17.5611 22.1005 12.7972 23.8587C11.9361 24.1752 11.005 23.9299 10.2682 23.4214L9.66264 23.0036C9.41403 22.8335 9.2047 22.6106 9.04911 22.3504C8.89352 22.0901 8.79537 21.7986 8.76143 21.4961C8.72748 21.1936 8.75856 20.8871 8.85251 20.598C8.94646 20.3088 9.10105 20.0438 9.30561 19.8212L10.2595 18.7421C10.4835 18.4915 10.7693 18.3061 11.0875 18.2051C11.4056 18.1042 11.7445 18.0913 12.0691 18.1678L14.2131 18.6834C15.9131 17.6049 16.8243 16.0878 16.9468 14.1321L15.4102 12.6032C15.1807 12.3753 15.0218 12.0843 14.9531 11.7659C14.8843 11.4475 14.9088 11.1156 15.0234 10.8111Z" fill="#193E7F"/>
</svg>
