<svg width="23" height="23" viewBox="0 0 23 23" fill="none" xmlns="http://www.w3.org/2000/svg">
<path d="M9.47059 0C8.0353 0 6.65879 0.570167 5.64389 1.58507C4.62899 2.59997 4.05882 3.97648 4.05882 5.41176C4.05882 6.84705 4.62899 8.22356 5.64389 9.23846C6.65879 10.2534 8.0353 10.8235 9.47059 10.8235C10.9059 10.8235 12.2824 10.2534 13.2973 9.23846C14.3122 8.22356 14.8824 6.84705 14.8824 5.41176C14.8824 3.97648 14.3122 2.59997 13.2973 1.58507C12.2824 0.570167 10.9059 0 9.47059 0ZM2.71806 12.1765C2.36169 12.1749 2.00852 12.2437 1.67882 12.3789C1.34912 12.5142 1.04939 12.7133 0.796835 12.9647C0.544279 13.2161 0.343876 13.5149 0.207132 13.844C0.0703877 14.1731 -3.60811e-06 14.526 1.38712e-10 14.8824C1.38712e-10 17.1702 1.127 18.8952 2.88853 20.0195C4.623 21.1248 6.96088 21.6471 9.47059 21.6471C10.0271 21.6471 10.5728 21.6214 11.1076 21.5699C10.0458 20.2499 9.46804 18.6059 9.47059 16.9118C9.47059 15.1124 10.1092 13.4618 11.1712 12.1765H2.71806ZM16.0662 14.2059C16.0662 13.9816 16.1553 13.7665 16.3138 13.608C16.4724 13.4494 16.6875 13.3603 16.9118 13.3603C17.136 13.3603 17.3511 13.4494 17.5097 13.608C17.6683 13.7665 17.7574 13.9816 17.7574 14.2059C17.7574 14.4301 17.6683 14.6452 17.5097 14.8038C17.3511 14.9624 17.136 15.0515 16.9118 15.0515C16.6875 15.0515 16.4724 14.9624 16.3138 14.8038C16.1553 14.6452 16.0662 14.4301 16.0662 14.2059ZM17.5882 19.6176C17.5882 19.7971 17.517 19.9691 17.3901 20.096C17.2632 20.2228 17.0912 20.2941 16.9118 20.2941C16.7324 20.2941 16.5603 20.2228 16.4334 20.096C16.3066 19.9691 16.2353 19.7971 16.2353 19.6176V16.9118C16.2353 16.7324 16.3066 16.5603 16.4334 16.4334C16.5603 16.3066 16.7324 16.2353 16.9118 16.2353C17.0912 16.2353 17.2632 16.3066 17.3901 16.4334C17.517 16.5603 17.5882 16.7324 17.5882 16.9118V19.6176ZM10.8235 16.9118C10.8235 15.2971 11.465 13.7485 12.6067 12.6067C13.7485 11.465 15.2971 10.8235 16.9118 10.8235C18.5265 10.8235 20.075 11.465 21.2168 12.6067C22.3586 13.7485 23 15.2971 23 16.9118C23 18.5265 22.3586 20.075 21.2168 21.2168C20.075 22.3586 18.5265 23 16.9118 23C15.2971 23 13.7485 22.3586 12.6067 21.2168C11.465 20.075 10.8235 18.5265 10.8235 16.9118ZM12.1765 16.9118C12.1765 17.5336 12.299 18.1494 12.5369 18.7239C12.7749 19.2984 13.1237 19.8204 13.5634 20.2601C14.0031 20.6998 14.5251 21.0486 15.0996 21.2866C15.6742 21.5246 16.2899 21.6471 16.9118 21.6471C17.5336 21.6471 18.1494 21.5246 18.7239 21.2866C19.2984 21.0486 19.8204 20.6998 20.2601 20.2601C20.6998 19.8204 21.0486 19.2984 21.2866 18.7239C21.5246 18.1494 21.6471 17.5336 21.6471 16.9118C21.6471 15.6559 21.1482 14.4514 20.2601 13.5634C19.3721 12.6754 18.1676 12.1765 16.9118 12.1765C15.6559 12.1765 14.4514 12.6754 13.5634 13.5634C12.6754 14.4514 12.1765 15.6559 12.1765 16.9118Z" fill="#193E7F"/>
</svg>
