<svg width="22" height="22" viewBox="0 0 22 22" fill="none" xmlns="http://www.w3.org/2000/svg">
<path d="M3.16667 10.9098H1L10.75 1L20.5 10.9098H18.3333M3.16667 10.9098V18.6175C3.16667 19.2015 3.39494 19.7617 3.80127 20.1747C4.2076 20.5877 4.7587 20.8197 5.33333 20.8197H16.1667C16.7413 20.8197 17.2924 20.5877 17.6987 20.1747C18.1051 19.7617 18.3333 19.2015 18.3333 18.6175V10.9098" fill="#193E7F"/>
<path d="M3.16667 10.9098H1L10.75 1L20.5 10.9098H18.3333V18.6175C18.3333 19.2015 18.1051 19.7617 17.6987 20.1747C17.2924 20.5877 16.7413 20.8197 16.1667 20.8197H5.33333C4.7587 20.8197 4.2076 20.5877 3.80127 20.1747C3.39494 19.7617 3.16667 19.2015 3.16667 18.6175V10.9098Z" stroke="#193E7F" stroke-width="1.5" stroke-linecap="round" stroke-linejoin="round"/>
<path d="M9 20.3279V14.9918C9 14.5201 9.14048 14.0677 9.39052 13.7341C9.64057 13.4005 9.97971 13.2131 10.3333 13.2131H11.6667C12.0203 13.2131 12.3594 13.4005 12.6095 13.7341C12.8595 14.0677 13 14.5201 13 14.9918V20.3279" stroke="white" stroke-width="1.5" stroke-linecap="round" stroke-linejoin="round"/>
</svg>
