<svg width="22" height="22" viewBox="0 0 22 22" fill="none" xmlns="http://www.w3.org/2000/svg">
<path d="M20.6112 8.52696C20.241 8.14 19.8579 7.74125 19.7136 7.39062C19.58 7.06946 19.5721 6.53714 19.5643 6.02152C19.5496 5.06295 19.5338 3.9767 18.7786 3.22143C18.0233 2.46616 16.9371 2.45045 15.9785 2.43571C15.4629 2.42786 14.9305 2.42 14.6094 2.28643C14.2597 2.14205 13.86 1.75902 13.473 1.38875C12.7954 0.737589 12.0254 0 11 0C9.97464 0 9.20562 0.737589 8.52696 1.38875C8.14 1.75902 7.74125 2.14205 7.39062 2.28643C7.07143 2.42 6.53714 2.42786 6.02152 2.43571C5.06295 2.45045 3.9767 2.46616 3.22143 3.22143C2.46616 3.9767 2.45536 5.06295 2.43571 6.02152C2.42786 6.53714 2.42 7.06946 2.28643 7.39062C2.14205 7.74027 1.75902 8.14 1.38875 8.52696C0.737589 9.20464 0 9.97464 0 11C0 12.0254 0.737589 12.7944 1.38875 13.473C1.75902 13.86 2.14205 14.2587 2.28643 14.6094C2.42 14.9305 2.42786 15.4629 2.43571 15.9785C2.45045 16.9371 2.46616 18.0233 3.22143 18.7786C3.9767 19.5338 5.06295 19.5496 6.02152 19.5643C6.53714 19.5721 7.06946 19.58 7.39062 19.7136C7.74027 19.8579 8.14 20.241 8.52696 20.6112C9.20464 21.2624 9.97464 22 11 22C12.0254 22 12.7944 21.2624 13.473 20.6112C13.86 20.241 14.2587 19.8579 14.6094 19.7136C14.9305 19.58 15.4629 19.5721 15.9785 19.5643C16.9371 19.5496 18.0233 19.5338 18.7786 18.7786C19.5338 18.0233 19.5496 16.9371 19.5643 15.9785C19.5721 15.4629 19.58 14.9305 19.7136 14.6094C19.8579 14.2597 20.241 13.86 20.6112 13.473C21.2624 12.7954 22 12.0254 22 11C22 9.97464 21.2624 9.20562 20.6112 8.52696ZM15.4845 9.19875L9.98446 14.6988C9.91149 14.7718 9.82484 14.8298 9.72945 14.8693C9.63407 14.9088 9.53183 14.9292 9.42857 14.9292C9.32532 14.9292 9.22307 14.9088 9.12769 14.8693C9.0323 14.8298 8.94565 14.7718 8.87268 14.6988L6.51554 12.3416C6.44253 12.2686 6.38463 12.1819 6.34512 12.0866C6.30561 11.9912 6.28528 11.889 6.28528 11.7857C6.28528 11.6825 6.30561 11.5802 6.34512 11.4849C6.38463 11.3895 6.44253 11.3028 6.51554 11.2298C6.66297 11.0824 6.86293 10.9996 7.07143 10.9996C7.17467 10.9996 7.2769 11.0199 7.37228 11.0594C7.46766 11.0989 7.55432 11.1568 7.62732 11.2298L9.42857 13.0321L14.3727 8.08696C14.4457 8.01396 14.5323 7.95606 14.6277 7.91655C14.7231 7.87704 14.8253 7.85671 14.9286 7.85671C15.0318 7.85671 15.134 7.87704 15.2294 7.91655C15.3248 7.95606 15.4115 8.01396 15.4845 8.08696C15.5575 8.15996 15.6154 8.24663 15.6549 8.34201C15.6944 8.43739 15.7147 8.53962 15.7147 8.64286C15.7147 8.7461 15.6944 8.84832 15.6549 8.9437C15.6154 9.03908 15.5575 9.12575 15.4845 9.19875Z" fill="#193E7F"/>
</svg>
