<?xml version="1.0" standalone="no"?>
<!DOCTYPE svg PUBLIC "-//W3C//DTD SVG 20010904//EN"
 "http://www.w3.org/TR/2001/REC-SVG-20010904/DTD/svg10.dtd">
<svg version="1.0" xmlns="http://www.w3.org/2000/svg"
 width="376.000000pt" height="148.000000pt" viewBox="0 0 376.000000 148.000000"
 preserveAspectRatio="xMidYMid meet">

<g transform="translate(0.000000,148.000000) scale(0.100000,-0.100000)"
fill="#000000" stroke="none">
<path d="M1690 1088 c0 -7 9 -65 20 -128 11 -63 20 -116 20 -116 0 -1 -9 -4
-21 -7 -26 -7 -20 -31 8 -35 18 -3 23 -14 33 -69 6 -36 9 -67 6 -70 -2 -3 -84
-10 -181 -15 l-176 -11 -59 58 c-77 77 -93 64 -37 -29 l41 -69 -39 -73 c-22
-40 -36 -76 -32 -80 4 -5 34 18 67 51 l59 58 176 -10 c97 -6 178 -13 181 -16
3 -2 0 -34 -6 -70 -10 -55 -15 -66 -33 -69 -28 -4 -34 -28 -8 -35 12 -3 21 -6
21 -7 0 -2 -9 -52 -20 -112 -26 -143 -26 -144 8 -144 15 0 33 4 40 8 7 5 55
101 106 213 l94 204 188 5 c183 5 191 6 242 33 69 36 69 61 -3 97 -48 24 -57
25 -238 25 l-189 0 -89 195 c-48 107 -95 202 -104 212 -17 21 -75 25 -75 6z"/>
<path d="M30 595 c0 -24 2 -25 65 -25 63 0 65 1 65 25 0 24 -2 25 -65 25 -63
0 -65 -1 -65 -25z"/>
<path d="M220 595 c0 -25 1 -26 63 -23 56 3 62 5 65 26 3 21 0 22 -62 22 -64
0 -66 -1 -66 -25z"/>
<path d="M410 595 c0 -25 1 -26 63 -23 54 3 62 5 62 23 0 18 -8 20 -62 23 -62
3 -63 2 -63 -23z"/>
<path d="M600 595 c0 -24 3 -25 60 -25 57 0 60 1 60 25 0 24 -3 25 -60 25 -57
0 -60 -1 -60 -25z"/>
<path d="M782 598 c3 -21 9 -23 66 -26 61 -3 62 -2 62 23 0 24 -2 25 -66 25
-62 0 -65 -1 -62 -22z"/>
<path d="M972 598 c3 -21 9 -23 66 -26 61 -3 62 -2 62 23 0 24 -2 25 -66 25
-62 0 -65 -1 -62 -22z"/>
<path d="M1160 595 c0 -24 2 -25 65 -25 63 0 65 1 65 25 0 24 -2 25 -65 25
-63 0 -65 -1 -65 -25z"/>
<path d="M2480 595 c0 -24 2 -25 65 -25 63 0 65 1 65 25 0 24 -2 25 -65 25
-63 0 -65 -1 -65 -25z"/>
<path d="M2670 595 c0 -25 1 -26 63 -23 56 3 62 5 65 26 3 21 0 22 -62 22 -64
0 -66 -1 -66 -25z"/>
<path d="M2860 595 c0 -24 3 -25 60 -25 57 0 60 1 60 25 0 24 -3 25 -60 25
-57 0 -60 -1 -60 -25z"/>
<path d="M3050 595 c0 -24 3 -25 60 -25 57 0 60 1 60 25 0 24 -3 25 -60 25
-57 0 -60 -1 -60 -25z"/>
<path d="M3232 598 c3 -21 9 -23 66 -26 61 -3 62 -2 62 23 0 24 -2 25 -66 25
-62 0 -65 -1 -62 -22z"/>
<path d="M3422 598 c3 -21 9 -23 66 -26 61 -3 62 -2 62 23 0 24 -2 25 -66 25
-62 0 -65 -1 -62 -22z"/>
<path d="M3610 595 c0 -24 2 -25 65 -25 63 0 65 1 65 25 0 24 -2 25 -65 25
-63 0 -65 -1 -65 -25z"/>
</g>
</svg>
