<svg width="28" height="29" viewBox="0 0 28 29" fill="none" xmlns="http://www.w3.org/2000/svg">
<mask id="path-1-inside-1_262_28" fill="white">
<path d="M14 26C13.7756 26.0004 13.5514 25.9857 13.329 25.956C11.2745 22.6626 10.1367 18.8803 10.033 15H27.95C27.974 14.669 28 14.337 28 14C28 11.2311 27.1789 8.52431 25.6406 6.22202C24.1022 3.91973 21.9157 2.12532 19.3576 1.06569C16.7994 0.00606596 13.9845 -0.271181 11.2687 0.269012C8.55301 0.809205 6.05845 2.14258 4.10051 4.10051C2.14258 6.05845 0.809205 8.55301 0.269012 11.2687C-0.271181 13.9845 0.00606596 16.7994 1.06569 19.3576C2.12532 21.9157 3.91973 24.1022 6.22202 25.6406C8.52431 27.1789 11.2311 28 14 28V26ZM25.95 13H19.963C19.8563 9.32021 18.915 5.71274 17.21 2.45001C19.5686 3.10788 21.6697 4.47096 23.2318 6.35657C24.7939 8.24218 25.7424 10.5602 25.95 13ZM14.67 2.04401C16.7248 5.33733 17.863 9.1196 17.967 13H10.033C10.137 9.1196 11.2752 5.33733 13.33 2.04401C13.7755 1.98604 14.2266 1.98604 14.672 2.04401M10.791 2.44901C9.08555 5.71196 8.14384 9.31979 8.03701 13H2.05001C2.25764 10.5602 3.20607 8.24218 4.76817 6.35657C6.33028 4.47096 8.43143 3.10788 10.79 2.45001M2.05001 15H8.03701C8.14369 18.6798 9.08505 22.2873 10.79 25.55C8.43143 24.8921 6.33028 23.5291 4.76817 21.6434C3.20607 19.7578 2.25764 17.4398 2.05001 15Z"/>
</mask>
<path d="M14 26C13.7756 26.0004 13.5514 25.9857 13.329 25.956C11.2745 22.6626 10.1367 18.8803 10.033 15H27.95C27.974 14.669 28 14.337 28 14C28 11.2311 27.1789 8.52431 25.6406 6.22202C24.1022 3.91973 21.9157 2.12532 19.3576 1.06569C16.7994 0.00606596 13.9845 -0.271181 11.2687 0.269012C8.55301 0.809205 6.05845 2.14258 4.10051 4.10051C2.14258 6.05845 0.809205 8.55301 0.269012 11.2687C-0.271181 13.9845 0.00606596 16.7994 1.06569 19.3576C2.12532 21.9157 3.91973 24.1022 6.22202 25.6406C8.52431 27.1789 11.2311 28 14 28V26ZM25.95 13H19.963C19.8563 9.32021 18.915 5.71274 17.21 2.45001C19.5686 3.10788 21.6697 4.47096 23.2318 6.35657C24.7939 8.24218 25.7424 10.5602 25.95 13ZM14.67 2.04401C16.7248 5.33733 17.863 9.1196 17.967 13H10.033C10.137 9.1196 11.2752 5.33733 13.33 2.04401C13.7755 1.98604 14.2266 1.98604 14.672 2.04401M10.791 2.44901C9.08555 5.71196 8.14384 9.31979 8.03701 13H2.05001C2.25764 10.5602 3.20607 8.24218 4.76817 6.35657C6.33028 4.47096 8.43143 3.10788 10.79 2.45001M2.05001 15H8.03701C8.14369 18.6798 9.08505 22.2873 10.79 25.55C8.43143 24.8921 6.33028 23.5291 4.76817 21.6434C3.20607 19.7578 2.25764 17.4398 2.05001 15Z" fill="#1C1F6A"/>
<path d="M14 26H15V24.9982L13.9982 25L14 26ZM13.329 25.956L12.4806 26.4853L12.7298 26.8849L13.1966 26.9472L13.329 25.956ZM10.033 15V14H9.00593L9.03336 15.0267L10.033 15ZM27.95 15V16H28.8801L28.9474 15.0723L27.95 15ZM28 14H27H28ZM14 28V29H15V28H14ZM25.95 13V14H27.0387L26.9464 12.9152L25.95 13ZM19.963 13L18.9634 13.029L18.9916 14H19.963V13ZM17.21 2.45001L17.4787 1.48677L15.2541 0.866286L16.3237 2.91314L17.21 2.45001ZM17.967 13V14H18.9942L18.9666 12.9732L17.967 13ZM10.033 13L9.03337 12.9732L9.00586 14H10.033V13ZM13.33 2.04401L13.201 1.05237L12.732 1.1134L12.4816 1.51466L13.33 2.04401ZM8.03701 13V14H9.0084L9.03658 13.029L8.03701 13ZM2.05001 13L1.05361 12.9152L0.961288 14H2.05001V13ZM2.05001 15V14H0.961288L1.05361 15.0848L2.05001 15ZM8.03701 15L9.03659 14.971L9.00844 14H8.03701V15ZM10.79 25.55L10.5213 26.5132L12.7459 27.1337L11.6763 25.0869L10.79 25.55ZM13.9982 25C13.8187 25.0003 13.6393 24.9886 13.4614 24.9648L13.1966 26.9472C13.4635 26.9829 13.7325 27.0005 14.0018 27L13.9982 25ZM14.1775 25.4267C12.2172 22.2844 11.1316 18.6756 11.0326 14.9733L9.03336 15.0267C9.14178 19.085 10.3318 23.0408 12.4806 26.4853L14.1775 25.4267ZM10.033 16H27.95V14H10.033V16ZM28.9474 15.0723C28.9705 14.7529 29 14.3809 29 14H27C27 14.2931 26.9775 14.5851 26.9526 14.9277L28.9474 15.0723ZM29 14C29 11.0333 28.1203 8.13319 26.4721 5.66645L24.8091 6.77759C26.2376 8.91543 27 11.4288 27 14H29ZM26.4721 5.66645C24.8238 3.19971 22.4811 1.27713 19.7403 0.141813L18.9749 1.98957C21.3503 2.97351 23.3807 4.63975 24.8091 6.77759L26.4721 5.66645ZM19.7403 0.141813C16.9994 -0.993501 13.9834 -1.29055 11.0737 -0.711773L11.4638 1.2498C13.9856 0.74819 16.5995 1.00563 18.9749 1.98957L19.7403 0.141813ZM11.0737 -0.711773C8.16394 -0.132995 5.49119 1.29562 3.3934 3.3934L4.80762 4.80762C6.6257 2.98954 8.94208 1.75141 11.4638 1.2498L11.0737 -0.711773ZM3.3934 3.3934C1.29562 5.49119 -0.132995 8.16394 -0.711773 11.0737L1.2498 11.4638C1.75141 8.94208 2.98954 6.6257 4.80762 4.80762L3.3934 3.3934ZM-0.711773 11.0737C-1.29055 13.9834 -0.993501 16.9994 0.141813 19.7403L1.98957 18.9749C1.00563 16.5995 0.74819 13.9856 1.2498 11.4638L-0.711773 11.0737ZM0.141813 19.7403C1.27713 22.4811 3.19971 24.8238 5.66645 26.4721L6.77759 24.8091C4.63975 23.3807 2.97351 21.3503 1.98957 18.9749L0.141813 19.7403ZM5.66645 26.4721C8.13319 28.1203 11.0333 29 14 29V27C11.4288 27 8.91543 26.2376 6.77759 24.8091L5.66645 26.4721ZM15 28V26H13V28H15ZM25.95 12H19.963V14H25.95V12ZM20.9626 12.971C20.8515 9.1398 19.8714 5.38387 18.0963 1.98687L16.3237 2.91314C17.9585 6.0416 18.8611 9.50062 18.9634 13.029L20.9626 12.971ZM16.9413 3.41324C19.1035 4.01633 21.0297 5.26592 22.4618 6.99453L24.0019 5.71861C22.3097 3.676 20.0336 2.19942 17.4787 1.48677L16.9413 3.41324ZM22.4618 6.99453C23.8938 8.72313 24.7633 10.8482 24.9536 13.0848L26.9464 12.9152C26.7215 10.2723 25.6941 7.76123 24.0019 5.71861L22.4618 6.99453ZM13.8216 2.57336C15.7822 5.71562 16.8682 9.32438 16.9674 13.0268L18.9666 12.9732C18.8579 8.91482 17.6675 4.95905 15.5184 1.51466L13.8216 2.57336ZM17.967 12H10.033V14H17.967V12ZM11.0326 13.0268C11.1318 9.32438 12.2178 5.71562 14.1784 2.57336L12.4816 1.51466C10.3325 4.95905 9.1421 8.91482 9.03337 12.9732L11.0326 13.0268ZM13.459 3.03565C13.8188 2.98883 14.1832 2.98883 14.543 3.03565L14.801 1.05237C14.2699 0.983254 13.7321 0.983254 13.201 1.05237L13.459 3.03565ZM9.90476 1.98579C8.12912 5.38302 7.14866 9.13932 7.03743 12.971L9.03658 13.029C9.13903 9.50026 10.042 6.0409 11.6773 2.91222L9.90476 1.98579ZM8.03701 12H2.05001V14H8.03701V12ZM3.0464 13.0848C3.23675 10.8482 4.10621 8.72313 5.53825 6.99453L3.9981 5.71861C2.30593 7.76123 1.27853 10.2723 1.05361 12.9152L3.0464 13.0848ZM5.53825 6.99453C6.97029 5.26592 8.89648 4.01633 11.0587 3.41324L10.5213 1.48677C7.96637 2.19942 5.69028 3.676 3.9981 5.71861L5.53825 6.99453ZM2.05001 16H8.03701V14H2.05001V16ZM7.03743 15.029C7.1485 18.8602 8.1286 22.6161 9.90372 26.0131L11.6763 25.0869C10.0415 21.9584 9.13888 18.4994 9.03659 14.971L7.03743 15.029ZM11.0587 24.5868C8.89648 23.9837 6.97029 22.7341 5.53825 21.0055L3.9981 22.2814C5.69028 24.324 7.96637 25.8006 10.5213 26.5132L11.0587 24.5868ZM5.53825 21.0055C4.10621 19.2769 3.23675 17.1519 3.0464 14.9152L1.05361 15.0848C1.27853 17.7277 2.30593 20.2388 3.9981 22.2814L5.53825 21.0055Z" fill="url(#paint0_linear_262_28)" mask="url(#path-1-inside-1_262_28)"/>
<path d="M23.1857 22.5358L22.5 22.2615V23V26.5V26.75L22.7 26.9L24.5 28.25V28.3063L22.1581 27.5257L22 27.473L21.8419 27.5257L19.5 28.3063V28.25L21.3 26.9L21.5 26.75V26.5V23V22.2615L20.8143 22.5358L16.5 24.2615V23.309L21.2236 20.9472L21.5 20.809V20.5V18C21.5 17.8674 21.5527 17.7402 21.6464 17.6464C21.7402 17.5527 21.8674 17.5 22 17.5C22.1326 17.5 22.2598 17.5527 22.3536 17.6464C22.4473 17.7402 22.5 17.8674 22.5 18V20.5V20.809L22.7764 20.9472L27.5 23.309V24.2615L23.1857 22.5358Z" fill="#1C1F6A" stroke="url(#paint1_linear_262_28)"/>
<defs>
<linearGradient id="paint0_linear_262_28" x1="14" y1="0" x2="14" y2="28" gradientUnits="userSpaceOnUse">
<stop stop-color="#5558B5"/>
<stop offset="1" stop-color="#1C1F6A"/>
</linearGradient>
<linearGradient id="paint1_linear_262_28" x1="22" y1="17" x2="22" y2="29" gradientUnits="userSpaceOnUse">
<stop stop-color="#5558B5"/>
<stop offset="1" stop-color="#1C1F6A"/>
</linearGradient>
</defs>
</svg>
