<svg width="31" height="30" viewBox="0 0 31 30" fill="none" xmlns="http://www.w3.org/2000/svg">
<path fill-rule="evenodd" clip-rule="evenodd" d="M24.3492 23.3333L30.1429 25.5555V23.3333L24.3492 20.5555V17.7777C24.3492 17.4831 24.2271 17.2004 24.0098 16.9921C23.7925 16.7837 23.4978 16.6666 23.1905 16.6666C22.8832 16.6666 22.5884 16.7837 22.3711 16.9921C22.1538 17.2004 22.0317 17.4831 22.0317 17.7777V20.5555L16.2381 23.3333V25.5555L22.0317 23.3333V27.2222L19.7143 28.8888V30L23.1905 28.8888L26.6667 30V28.8888L24.3492 27.2222V23.3333Z" fill="url(#paint0_linear_167_1519)"/>
<path fill-rule="evenodd" clip-rule="evenodd" d="M25.5079 2.22222H20.873V0H18.5556V2.22222H9.28571V0H6.96825V2.22222H2.33333C1.7187 2.22222 1.12925 2.45635 0.694637 2.8731C0.260029 3.28984 0.0158691 3.85507 0.0158691 4.44444V26.6667C0.0158691 27.256 0.260029 27.8213 0.694637 28.238C1.12925 28.6548 1.7187 28.8889 2.33333 28.8889H13.9206V26.6667H2.33333V4.44444H6.96825V6.66667H9.28571V4.44444H18.5556V6.66667H20.873V4.44444H25.5079V12.2222H27.8254V4.44444C27.8254 3.85507 27.5812 3.28984 27.1466 2.8731C26.712 2.45635 26.1226 2.22222 25.5079 2.22222Z" fill="url(#paint1_linear_167_1519)"/>
<defs>
<linearGradient id="paint0_linear_167_1519" x1="23.1905" y1="16.6666" x2="23.1905" y2="30" gradientUnits="userSpaceOnUse">
<stop stop-color="#5558B5"/>
<stop offset="1" stop-color="#1C1F6A"/>
</linearGradient>
<linearGradient id="paint1_linear_167_1519" x1="13.9206" y1="0" x2="13.9206" y2="28.8889" gradientUnits="userSpaceOnUse">
<stop stop-color="#5558B5"/>
<stop offset="1" stop-color="#1C1F6A"/>
</linearGradient>
</defs>
</svg>
