<svg width="46" height="44" viewBox="0 0 46 44" fill="none" xmlns="http://www.w3.org/2000/svg">
<path d="M23.1039 25.8479C21.0156 25.8479 19.2057 24.2506 19.2057 22.1209C19.2057 20.1243 20.8764 18.3939 23.1039 18.3939C25.1923 18.3939 27.0022 19.9911 27.0022 22.1209C27.0022 24.1175 25.1923 25.8479 23.1039 25.8479Z" fill="#193E7F"/>
<path fill-rule="evenodd" clip-rule="evenodd" d="M27.8376 13.0696H18.3703C17.2565 13.2027 16.6996 13.3358 16.282 13.4689C15.7251 13.602 15.3074 13.8682 14.8897 14.2675C14.5592 14.5835 14.4031 14.8995 14.2143 15.2814C14.1646 15.3821 14.1125 15.4876 14.0544 15.5986C14.0329 15.6604 14.008 15.7253 13.9813 15.795C13.8357 16.1754 13.6367 16.6951 13.6367 17.5952V26.6465C13.7759 27.7114 13.9152 28.2438 14.0544 28.6431C14.1936 29.1755 14.4721 29.5749 14.8897 29.9742C15.2202 30.2902 15.5507 30.4394 15.9502 30.6199C16.0556 30.6675 16.1657 30.7173 16.282 30.7728C16.3466 30.7934 16.4145 30.8172 16.4874 30.8427C16.8853 30.9819 17.4288 31.1721 18.3703 31.1721H27.8376C28.9513 31.039 29.5082 30.9059 29.9259 30.7728C30.4828 30.6397 30.9005 30.3735 31.3182 29.9742C31.6487 29.6582 31.8048 29.3422 31.9935 28.9603C32.0433 28.8596 32.0954 28.7542 32.1535 28.6431C32.175 28.5813 32.1999 28.5164 32.2266 28.4467C32.3722 28.0663 32.5712 27.5466 32.5712 26.6465V17.5952C32.4319 16.5304 32.2927 15.9979 32.1535 15.5986C32.0143 15.0662 31.7358 14.6669 31.3182 14.2675C30.9877 13.9516 30.6572 13.8023 30.2577 13.6218C30.1525 13.5743 30.0419 13.5244 29.9259 13.4689C29.8613 13.4483 29.7934 13.4245 29.7205 13.399C29.3226 13.2598 28.779 13.0696 27.8376 13.0696ZM23.1039 16.3973C19.7626 16.3973 17.1173 18.9263 17.1173 22.1209C17.1173 25.3154 19.7626 27.8445 23.1039 27.8445C26.4453 27.8445 29.0906 25.3154 29.0906 22.1209C29.0906 18.9263 26.4453 16.3973 23.1039 16.3973ZM30.622 16.2641C30.622 16.9993 29.9987 17.5952 29.2298 17.5952C28.4609 17.5952 27.8376 16.9993 27.8376 16.2641C27.8376 15.529 28.4609 14.9331 29.2298 14.9331C29.9987 14.9331 30.622 15.529 30.622 16.2641Z" fill="#193E7F"/>
<path fill-rule="evenodd" clip-rule="evenodd" d="M0.828125 7.47908C0.828125 3.80343 3.94476 0.82373 7.78932 0.82373H38.4186C42.2631 0.82373 45.3798 3.80343 45.3798 7.47908V36.7626C45.3798 40.4383 42.2631 43.418 38.4186 43.418H7.78932C3.94476 43.418 0.828125 40.4383 0.828125 36.7626V7.47908ZM18.3703 11.073H27.8376C29.0906 11.2061 29.9259 11.3392 30.622 11.6054C31.4574 12.0047 32.0143 12.2709 32.7104 12.9365C33.4065 13.602 33.8242 14.2675 34.1026 14.9331C34.3811 15.5986 34.6595 16.3973 34.6595 17.5952V26.6465C34.5203 27.8445 34.3811 28.6431 34.1026 29.3086C33.685 30.1073 33.4065 30.6397 32.7104 31.3052C32.0143 31.9708 31.3182 32.3701 30.622 32.6363C29.9259 32.9025 29.0906 33.1687 27.8376 33.1687H18.3703C17.1173 33.0356 16.282 32.9025 15.5859 32.6363C14.7505 32.237 14.1936 31.9708 13.4975 31.3052C12.8014 30.6397 12.3837 29.9742 12.1053 29.3086C11.8268 28.6431 11.5484 27.8445 11.5484 26.6465V17.5952C11.6876 16.3973 11.8268 15.5986 12.1053 14.9331C12.5229 14.1344 12.8014 13.602 13.4975 12.9365C14.1936 12.2709 14.8897 11.8716 15.5859 11.6054C16.282 11.3392 17.1173 11.073 18.3703 11.073Z" fill="#193E7F"/>
</svg>
