<svg width="46" height="44" viewBox="0 0 46 44" fill="none" xmlns="http://www.w3.org/2000/svg">
<path d="M23.1033 25.8478C21.0149 25.8478 19.205 24.2505 19.205 22.1208C19.205 20.1242 20.8757 18.3938 23.1033 18.3938C25.1916 18.3938 27.0015 19.9911 27.0015 22.1208C27.0015 24.1174 25.1916 25.8478 23.1033 25.8478Z" fill="url(#paint0_linear_167_1638)"/>
<path fill-rule="evenodd" clip-rule="evenodd" d="M27.8369 13.0695H18.3697C17.2559 13.2026 16.699 13.3357 16.2813 13.4688C15.7244 13.6019 15.3067 13.8682 14.8891 14.2675C14.5586 14.5835 14.4024 14.8994 14.2137 15.2814C14.1639 15.382 14.1118 15.4875 14.0537 15.5985C14.0322 15.6603 14.0073 15.7253 13.9807 15.7949C13.835 16.1753 13.6361 16.695 13.6361 17.5952V26.6464C13.7753 27.7113 13.9145 28.2437 14.0537 28.643C14.1929 29.1755 14.4714 29.5748 14.8891 29.9741C15.2196 30.2901 15.5501 30.4394 15.9495 30.6198C16.0549 30.6674 16.1651 30.7172 16.2813 30.7728C16.3459 30.7933 16.4139 30.8171 16.4867 30.8426C16.8846 30.9819 17.4282 31.1721 18.3697 31.1721H27.8369C28.9507 31.039 29.5076 30.9059 29.9252 30.7728C30.4821 30.6396 30.8998 30.3734 31.3175 29.9741C31.648 29.6581 31.8041 29.3422 31.9929 28.9602C32.0426 28.8595 32.0947 28.7541 32.1528 28.643C32.1744 28.5813 32.1992 28.5163 32.2259 28.4467C32.3715 28.0662 32.5705 27.5466 32.5705 26.6464V17.5952C32.4313 16.5303 32.2921 15.9979 32.1528 15.5985C32.0136 15.0661 31.7352 14.6668 31.3175 14.2675C30.987 13.9515 30.6565 13.8022 30.257 13.6218C30.1518 13.5742 30.0413 13.5243 29.9252 13.4688C29.8606 13.4482 29.7927 13.4245 29.7199 13.399C29.3219 13.2597 28.7784 13.0695 27.8369 13.0695ZM23.1033 16.3972C19.7619 16.3972 17.1166 18.9262 17.1166 22.1208C17.1166 25.3154 19.7619 27.8444 23.1033 27.8444C26.4446 27.8444 29.0899 25.3154 29.0899 22.1208C29.0899 18.9262 26.4446 16.3972 23.1033 16.3972ZM30.6214 16.2641C30.6214 16.9992 29.998 17.5952 29.2291 17.5952C28.4602 17.5952 27.8369 16.9992 27.8369 16.2641C27.8369 15.529 28.4602 14.933 29.2291 14.933C29.998 14.933 30.6214 15.529 30.6214 16.2641Z" fill="url(#paint1_linear_167_1638)"/>
<path fill-rule="evenodd" clip-rule="evenodd" d="M0.827454 7.47902C0.827454 3.80337 3.94409 0.823669 7.78865 0.823669H38.4179C42.2625 0.823669 45.3791 3.80337 45.3791 7.47902V36.7626C45.3791 40.4382 42.2625 43.4179 38.4179 43.4179H7.78865C3.94409 43.4179 0.827454 40.4382 0.827454 36.7626V7.47902ZM18.3697 11.0729H27.8369C29.0899 11.206 29.9252 11.3391 30.6214 11.6053C31.4567 12.0047 32.0136 12.2709 32.7097 12.9364C33.4058 13.6019 33.8235 14.2675 34.102 14.933C34.3804 15.5985 34.6589 16.3972 34.6589 17.5952V26.6464C34.5196 27.8444 34.3804 28.643 34.102 29.3086C33.6843 30.1072 33.4058 30.6396 32.7097 31.3052C32.0136 31.9707 31.3175 32.37 30.6214 32.6363C29.9252 32.9025 29.0899 33.1687 27.8369 33.1687H18.3697C17.1166 33.0356 16.2813 32.9025 15.5852 32.6363C14.7498 32.2369 14.1929 31.9707 13.4968 31.3052C12.8007 30.6396 12.383 29.9741 12.1046 29.3086C11.8261 28.643 11.5477 27.8444 11.5477 26.6464V17.5952C11.6869 16.3972 11.8261 15.5985 12.1046 14.933C12.5223 14.1344 12.8007 13.6019 13.4968 12.9364C14.1929 12.2709 14.8891 11.8716 15.5852 11.6053C16.2813 11.3391 17.1166 11.0729 18.3697 11.0729Z" fill="url(#paint2_linear_167_1638)"/>
<defs>
<linearGradient id="paint0_linear_167_1638" x1="23.1033" y1="0.823669" x2="23.1033" y2="43.4179" gradientUnits="userSpaceOnUse">
<stop stop-color="#5558B5"/>
<stop offset="1" stop-color="#1C1F6A"/>
</linearGradient>
<linearGradient id="paint1_linear_167_1638" x1="23.1033" y1="0.823669" x2="23.1033" y2="43.4179" gradientUnits="userSpaceOnUse">
<stop stop-color="#5558B5"/>
<stop offset="1" stop-color="#1C1F6A"/>
</linearGradient>
<linearGradient id="paint2_linear_167_1638" x1="23.1033" y1="0.823669" x2="23.1033" y2="43.4179" gradientUnits="userSpaceOnUse">
<stop stop-color="#5558B5"/>
<stop offset="1" stop-color="#1C1F6A"/>
</linearGradient>
</defs>
</svg>
