<svg width="45" height="43" viewBox="0 0 45 43" fill="none" xmlns="http://www.w3.org/2000/svg">
<rect width="44.1592" height="42.1645" rx="6" fill="#193E7F"/>
<path d="M14.3206 13.3375C15.6389 13.3375 16.7076 12.2622 16.7076 10.9357C16.7076 9.60925 15.6389 8.53394 14.3206 8.53394C13.0023 8.53394 11.9336 9.60925 11.9336 10.9357C11.9336 12.2622 13.0023 13.3375 14.3206 13.3375Z" fill="white"/>
<path d="M18.4841 14.8859V28.9478H22.5038V21.9939C22.5038 20.1589 22.8216 18.3819 24.9162 18.3819C26.982 18.3819 27.0076 20.4798 27.0076 22.1097V28.949H31.0294V21.2374C31.0294 17.4494 30.2786 14.5383 26.2024 14.5383C24.2454 14.5383 22.9336 15.7049 22.3971 16.8088H22.3427V14.8859H18.4841ZM11.9336 14.8859H15.9597V28.9478H11.9336V14.8859Z" fill="white"/>
</svg>
