<svg width="45" height="43" viewBox="0 0 45 43" fill="none" xmlns="http://www.w3.org/2000/svg">
<rect x="0.620178" y="0.823669" width="44.1592" height="42.1645" rx="6" fill="url(#paint0_linear_167_1647)"/>
<path d="M14.9421 14.1612C16.2604 14.1612 17.3291 13.0859 17.3291 11.7594C17.3291 10.433 16.2604 9.35767 14.9421 9.35767C13.6238 9.35767 12.5551 10.433 12.5551 11.7594C12.5551 13.0859 13.6238 14.1612 14.9421 14.1612Z" fill="white"/>
<path d="M19.1056 15.7096V29.7715H23.1253V22.8176C23.1253 20.9827 23.4431 19.2057 25.5378 19.2057C27.6036 19.2057 27.6292 21.3036 27.6292 22.9334V29.7727H31.651V22.0612C31.651 18.2731 30.9002 15.3621 26.824 15.3621C24.8669 15.3621 23.5551 16.5286 23.0187 17.6325H22.9643V15.7096H19.1056ZM12.5551 15.7096H16.5812V29.7715H12.5551V15.7096Z" fill="white"/>
<defs>
<linearGradient id="paint0_linear_167_1647" x1="22.6998" y1="0.823669" x2="22.6998" y2="42.9881" gradientUnits="userSpaceOnUse">
<stop stop-color="#5558B5"/>
<stop offset="1" stop-color="#1C1F6A"/>
</linearGradient>
</defs>
</svg>
