<svg width="34" height="25" viewBox="0 0 34 25" fill="none" xmlns="http://www.w3.org/2000/svg">
<path d="M28.1905 20.0404C28.1905 20.9756 27.7835 21.8724 27.0592 22.5337C26.3348 23.1949 25.3524 23.5664 24.328 23.5664C23.3037 23.5664 22.3212 23.1949 21.5969 22.5337C20.8725 21.8724 20.4656 20.9756 20.4656 20.0404C20.4656 19.1053 20.8725 18.2084 21.5969 17.5471C22.3212 16.8859 23.3037 16.5144 24.328 16.5144C25.3524 16.5144 26.3348 16.8859 27.0592 17.5471C27.7835 18.2084 28.1905 19.1053 28.1905 20.0404ZM12.7407 20.0404C12.7407 20.9756 12.3338 21.8724 11.6095 22.5337C10.8851 23.1949 9.90268 23.5664 8.8783 23.5664C7.85392 23.5664 6.8715 23.1949 6.14715 22.5337C5.4228 21.8724 5.01587 20.9756 5.01587 20.0404C5.01587 19.1053 5.4228 18.2084 6.14715 17.5471C6.8715 16.8859 7.85392 16.5144 8.8783 16.5144C9.90268 16.5144 10.8851 16.8859 11.6095 17.5471C12.3338 18.2084 12.7407 19.1053 12.7407 20.0404Z" stroke="url(#paint0_linear_167_1537)" stroke-width="2" stroke-linecap="round" stroke-linejoin="round"/>
<path d="M20.4656 20.0405H12.7407M21.2381 17.2197V5.23121C21.2381 3.2369 21.2381 2.23975 20.5583 1.62058C19.8816 1 18.7893 1 16.6032 1H5.78836C3.60377 1 2.51147 1 1.83323 1.62058C1.15344 2.23834 1.15344 3.23549 1.15344 5.23121V16.5145C1.15344 17.8332 1.15344 18.4918 1.46398 18.9827C1.66737 19.3042 1.9599 19.5713 2.31217 19.757C2.84982 20.0405 3.57133 20.0405 5.01588 20.0405M22.0106 4.52601H24.7931C26.0754 4.52601 26.7166 4.52601 27.248 4.80104C27.7795 5.07466 28.1086 5.57676 28.7683 6.58097L31.3932 10.5724C31.7207 11.0717 31.8845 11.3228 31.9695 11.5992C32.0529 11.877 32.0529 12.1676 32.0529 12.7501V16.5145C32.0529 17.8332 32.0529 18.4918 31.7424 18.9827C31.539 19.3042 31.2465 19.5713 30.8942 19.757C30.3565 20.0405 29.635 20.0405 28.1905 20.0405M8.10582 5.23121V10.8728M14.2857 5.23121V10.8728" stroke="url(#paint1_linear_167_1537)" stroke-width="2" stroke-linecap="round" stroke-linejoin="round"/>
<defs>
<linearGradient id="paint0_linear_167_1537" x1="16.6032" y1="16.5144" x2="16.6032" y2="23.5664" gradientUnits="userSpaceOnUse">
<stop stop-color="#5558B5"/>
<stop offset="1" stop-color="#1C1F6A"/>
</linearGradient>
<linearGradient id="paint1_linear_167_1537" x1="16.6032" y1="1" x2="16.6032" y2="20.0405" gradientUnits="userSpaceOnUse">
<stop stop-color="#5558B5"/>
<stop offset="1" stop-color="#1C1F6A"/>
</linearGradient>
</defs>
</svg>
