<svg width="34" height="33" viewBox="0 0 34 33" fill="none" xmlns="http://www.w3.org/2000/svg">
<path d="M1.729 28.6667V4.66667C1.729 3.95942 2.01521 3.28115 2.52465 2.78105C3.0341 2.28095 3.72505 2 4.44551 2H28.8941C29.6146 2 30.3055 2.28095 30.815 2.78105C31.3244 3.28115 31.6106 3.95942 31.6106 4.66667V28.6667C31.6106 29.3739 31.3244 30.0522 30.815 30.5523C30.3055 31.0524 29.6146 31.3333 28.8941 31.3333H4.44551C3.72505 31.3333 3.0341 31.0524 2.52465 30.5523C2.01521 30.0522 1.729 29.3739 1.729 28.6667Z" stroke="url(#paint0_linear_167_1542)" stroke-width="3"/>
<path d="M20.7446 10H26.1776M20.7446 21.3334H26.1776M20.7446 25.3334H26.1776M7.16205 10H9.87856M9.87856 10H12.5951M9.87856 10V7.33337M9.87856 10V12.6667M7.95799 25.2187L9.87856 23.3334M9.87856 23.3334L11.8005 21.448M9.87856 23.3334L7.95799 21.448M9.87856 23.3334L11.8005 25.2187" stroke="url(#paint1_linear_167_1542)" stroke-width="2.5" stroke-linecap="round" stroke-linejoin="round"/>
<defs>
<linearGradient id="paint0_linear_167_1542" x1="16.6698" y1="2" x2="16.6698" y2="31.3333" gradientUnits="userSpaceOnUse">
<stop offset="0.5" stop-color="#5558B5"/>
<stop offset="1" stop-color="#1C1F6A"/>
</linearGradient>
<linearGradient id="paint1_linear_167_1542" x1="16.6698" y1="7.33337" x2="16.6698" y2="25.3334" gradientUnits="userSpaceOnUse">
<stop offset="0.5" stop-color="#5558B5"/>
<stop offset="1" stop-color="#1C1F6A"/>
</linearGradient>
</defs>
</svg>
