<svg width="22" height="22" viewBox="0 0 22 22" fill="none" xmlns="http://www.w3.org/2000/svg">
<path d="M14.3329 8.77758L9.88839 13.2224L7.66612 11M12.384 1.50918L13.7407 2.66483C14.0829 2.95597 14.5074 3.13154 14.9541 3.16821L16.7319 3.31044C17.2372 3.35079 17.7116 3.56977 18.0702 3.92814C18.4287 4.28651 18.648 4.76085 18.6886 5.26617L18.8297 7.0441C18.8664 7.49192 19.043 7.91751 19.3342 8.25865L20.4897 9.61432C20.8191 10.0005 21 10.4914 21 10.9989C21 11.5064 20.8191 11.9973 20.4897 12.3835L19.3342 13.7402C19.043 14.0825 18.8664 14.507 18.8308 14.9548L18.6886 16.7327C18.6482 17.2381 18.4293 17.7125 18.0709 18.0711C17.7126 18.4297 17.2383 18.6489 16.733 18.6896L14.9552 18.8318C14.5076 18.8672 14.0826 19.043 13.7407 19.3341L12.384 20.4897C11.9979 20.8191 11.507 21 10.9995 21C10.492 21 10.0012 20.8191 9.61505 20.4897L8.25946 19.3341C7.91727 19.0428 7.49186 18.867 7.04388 18.8318L5.26606 18.6896C4.7606 18.6489 4.28615 18.4295 3.92778 18.0707C3.56941 17.7119 3.35056 17.2372 3.31046 16.7316L3.16823 14.9548C3.13225 14.5074 2.95611 14.0828 2.66489 13.7413L1.50931 12.3835C1.18056 11.9975 1 11.507 1 11C1 10.493 1.18056 10.0025 1.50931 9.61655L2.66489 8.25865C2.95712 7.9164 3.13157 7.49192 3.16712 7.0441L3.30935 5.26728C3.3498 4.76141 3.56924 4.28652 3.92827 3.92788C4.2873 3.56924 4.7624 3.35033 5.26828 3.31044L7.04388 3.16932C7.4916 3.13356 7.91661 2.9574 8.25835 2.66594L9.61505 1.51029C10.0012 1.18092 10.492 1 10.9995 1C11.507 1 11.9979 1.17981 12.384 1.50918Z" stroke="#193E7F" stroke-width="1.5" stroke-linecap="round" stroke-linejoin="round"/>
</svg>
