<svg width="17" height="16" viewBox="0 0 17 16" fill="none" xmlns="http://www.w3.org/2000/svg">
<path fill-rule="evenodd" clip-rule="evenodd" d="M9.04333 3.5C9.04333 3.36739 8.98816 3.24021 8.88997 3.14645C8.79178 3.05268 8.65861 3 8.51974 3H1.57075C1.15416 3 0.754634 3.15804 0.460062 3.43934C0.165489 3.72064 0 4.10218 0 4.5L0 14.5C0 14.8978 0.165489 15.2794 0.460062 15.5607C0.754634 15.842 1.15416 16 1.57075 16H12.0424C12.459 16 12.8585 15.842 13.1531 15.5607C13.4477 15.2794 13.6132 14.8978 13.6132 14.5V7.864C13.6132 7.73139 13.558 7.60421 13.4598 7.51045C13.3616 7.41668 13.2284 7.364 13.0896 7.364C12.9507 7.364 12.8175 7.41668 12.7193 7.51045C12.6212 7.60421 12.566 7.73139 12.566 7.864V14.5C12.566 14.6326 12.5108 14.7598 12.4126 14.8536C12.3144 14.9473 12.1813 15 12.0424 15H1.57075C1.43189 15 1.29871 14.9473 1.20052 14.8536C1.10233 14.7598 1.04717 14.6326 1.04717 14.5V4.5C1.04717 4.36739 1.10233 4.24021 1.20052 4.14645C1.29871 4.05268 1.43189 4 1.57075 4H8.51974C8.65861 4 8.79178 3.94732 8.88997 3.85355C8.98816 3.75979 9.04333 3.63261 9.04333 3.5Z" fill="#1C1F6A"/>
<path fill-rule="evenodd" clip-rule="evenodd" d="M16.7547 0.5C16.7547 0.367392 16.6995 0.240215 16.6013 0.146447C16.5031 0.0526784 16.3699 0 16.2311 0L10.9952 0C10.8564 0 10.7232 0.0526784 10.625 0.146447C10.5268 0.240215 10.4717 0.367392 10.4717 0.5C10.4717 0.632608 10.5268 0.759785 10.625 0.853553C10.7232 0.947322 10.8564 1 10.9952 1H14.9671L6.43588 9.146C6.3872 9.19249 6.34859 9.24768 6.32224 9.30842C6.2959 9.36916 6.28234 9.43426 6.28234 9.5C6.28234 9.56574 6.2959 9.63084 6.32224 9.69158C6.34859 9.75232 6.3872 9.80751 6.43588 9.854C6.48456 9.90049 6.54236 9.93736 6.60596 9.96252C6.66956 9.98768 6.73774 10.0006 6.80658 10.0006C6.87542 10.0006 6.9436 9.98768 7.0072 9.96252C7.0708 9.93736 7.1286 9.90049 7.17728 9.854L15.7075 1.707V5.5C15.7075 5.63261 15.7627 5.75979 15.8608 5.85355C15.959 5.94732 16.0922 6 16.2311 6C16.3699 6 16.5031 5.94732 16.6013 5.85355C16.6995 5.75979 16.7547 5.63261 16.7547 5.5V0.5Z" fill="#1C1F6A"/>
</svg>
