<svg width="78" height="73" viewBox="0 0 78 73" fill="none" xmlns="http://www.w3.org/2000/svg">
<path fill-rule="evenodd" clip-rule="evenodd" d="M0 36.5C0 26.8196 4.10892 17.5357 11.4228 10.6906C18.7368 3.84552 28.6566 0 39 0C49.3434 0 59.2632 3.84552 66.5772 10.6906C73.8911 17.5357 78 26.8196 78 36.5C78 46.1804 73.8911 55.4643 66.5772 62.3094C59.2632 69.1545 49.3434 73 39 73C28.6566 73 18.7368 69.1545 11.4228 62.3094C4.10892 55.4643 0 46.1804 0 36.5ZM36.0256 56.0233L62.9318 27.1628L55.8409 22.0698L36.0256 45.2065L22.464 34.6312L16.8409 40.7442L36.0256 56.0233Z" fill="#87D185"/>
</svg>
