<svg width="29" height="29" viewBox="0 0 29 29" fill="none" xmlns="http://www.w3.org/2000/svg">
<path d="M22.3328 9C22.3328 13.8173 17.1741 18.9053 15.1421 20.7267C14.9096 20.9042 14.6253 21.0004 14.3328 21.0004C14.0403 21.0004 13.7559 20.9042 13.5234 20.7267C11.4928 18.9053 6.33276 13.8173 6.33276 9C6.33276 6.87827 7.17562 4.84344 8.67591 3.34315C10.1762 1.84285 12.211 1 14.3328 1C16.4545 1 18.4893 1.84285 19.9896 3.34315C21.4899 4.84344 22.3328 6.87827 22.3328 9Z" stroke="url(#paint0_linear_167_1524)" stroke-width="2" stroke-linecap="round" stroke-linejoin="round"/>
<path d="M14.3327 11.6667C15.8055 11.6667 16.9994 10.4728 16.9994 9.00004C16.9994 7.52728 15.8055 6.33337 14.3327 6.33337C12.86 6.33337 11.6661 7.52728 11.6661 9.00004C11.6661 10.4728 12.86 11.6667 14.3327 11.6667Z" stroke="url(#paint1_linear_167_1524)" stroke-width="2" stroke-linecap="round" stroke-linejoin="round"/>
<path d="M9.95143 17H5.00477C4.72521 17.0001 4.45275 17.0881 4.22593 17.2515C3.99911 17.4149 3.82939 17.6455 3.74077 17.9107L1.06877 25.9107C1.00178 26.1111 0.983388 26.3245 1.01511 26.5335C1.04682 26.7424 1.12774 26.9408 1.25119 27.1123C1.37464 27.2838 1.53709 27.4235 1.72514 27.5199C1.91319 27.6163 2.12145 27.6666 2.33277 27.6667H26.3328C26.5439 27.6665 26.752 27.6162 26.9399 27.5199C27.1278 27.4236 27.2902 27.284 27.4136 27.1127C27.537 26.9413 27.618 26.7431 27.6498 26.5344C27.6817 26.3257 27.6635 26.1123 27.5968 25.912L24.9301 17.912C24.8416 17.6464 24.6718 17.4154 24.4447 17.2517C24.2176 17.088 23.9447 16.9999 23.6648 17H18.7154" stroke="url(#paint2_linear_167_1524)" stroke-width="2" stroke-linecap="round" stroke-linejoin="round"/>
<defs>
<linearGradient id="paint0_linear_167_1524" x1="14.3328" y1="1" x2="14.3328" y2="21.0004" gradientUnits="userSpaceOnUse">
<stop stop-color="#5558B5"/>
<stop offset="1" stop-color="#1C1F6A"/>
</linearGradient>
<linearGradient id="paint1_linear_167_1524" x1="14.3327" y1="6.33337" x2="14.3327" y2="11.6667" gradientUnits="userSpaceOnUse">
<stop stop-color="#5558B5"/>
<stop offset="1" stop-color="#1C1F6A"/>
</linearGradient>
<linearGradient id="paint2_linear_167_1524" x1="14.3325" y1="17" x2="14.3325" y2="27.6667" gradientUnits="userSpaceOnUse">
<stop stop-color="#5558B5"/>
<stop offset="1" stop-color="#1C1F6A"/>
</linearGradient>
</defs>
</svg>
