<svg width="33" height="39" viewBox="0 0 33 39" fill="none" xmlns="http://www.w3.org/2000/svg">
<path d="M7.77481 7.45289C7.00004 8.19268 6.5625 9.19857 6.5625 10.25V12.1C6.5625 13.1514 7.00004 14.1573 7.77481 14.8971C8.54919 15.6365 9.59711 16.05 10.6875 16.05H22.3125C23.4029 16.05 24.4508 15.6365 25.2252 14.8971C26 14.1573 26.4375 13.1514 26.4375 12.1V10.25C26.4375 9.19857 26 8.19268 25.2252 7.45289C24.4508 6.71348 23.4029 6.3 22.3125 6.3H10.6875C9.59711 6.3 8.54919 6.71348 7.77481 7.45289ZM10.1751 9.77674C10.3091 9.64879 10.4932 9.575 10.6875 9.575H22.3125C22.5068 9.575 22.6909 9.64879 22.8249 9.77674C22.9585 9.90431 23.0312 10.0748 23.0312 10.25V12.1C23.0312 12.2752 22.9585 12.4457 22.8249 12.5733C22.6909 12.7012 22.5068 12.775 22.3125 12.775H10.6875C10.4932 12.775 10.3091 12.7012 10.1751 12.5733C10.0415 12.4457 9.96875 12.2752 9.96875 12.1V10.25C9.96875 10.0748 10.0415 9.90431 10.1751 9.77674ZM9.23438 24.375C9.93937 24.375 10.6177 24.1077 11.1195 23.6285C11.6218 23.1489 11.9062 22.4959 11.9062 21.8125C11.9062 21.1291 11.6218 20.4761 11.1195 19.9965C10.6177 19.5173 9.93937 19.25 9.23438 19.25C8.52938 19.25 7.85107 19.5173 7.34921 19.9965C6.84695 20.4761 6.5625 21.1291 6.5625 21.8125C6.5625 22.4959 6.84695 23.1489 7.34921 23.6285C7.85107 24.1077 8.52938 24.375 9.23438 24.375ZM11.1195 31.0285C11.6218 30.5489 11.9062 29.8959 11.9062 29.2125C11.9062 28.5291 11.6218 27.8761 11.1195 27.3965C10.6177 26.9173 9.93937 26.65 9.23438 26.65C8.52938 26.65 7.85107 26.9173 7.34921 27.3965C6.84695 27.8761 6.5625 28.5291 6.5625 29.2125C6.5625 29.8959 6.84695 30.5489 7.34921 31.0285C7.85107 31.5077 8.52938 31.775 9.23438 31.775C9.93937 31.775 10.6177 31.5077 11.1195 31.0285ZM23.7656 24.375C24.4706 24.375 25.1489 24.1077 25.6508 23.6285C26.1531 23.1489 26.4375 22.4959 26.4375 21.8125C26.4375 21.1291 26.1531 20.4761 25.6508 19.9965C25.1489 19.5173 24.4706 19.25 23.7656 19.25C23.0606 19.25 22.3823 19.5173 21.8805 19.9965C21.3782 20.4761 21.0938 21.1291 21.0938 21.8125C21.0938 22.4959 21.3782 23.1489 21.8805 23.6285C22.3823 24.1077 23.0606 24.375 23.7656 24.375ZM25.6508 31.0285C26.1531 30.5489 26.4375 29.8959 26.4375 29.2125C26.4375 28.5291 26.1531 27.8761 25.6508 27.3965C25.1489 26.9173 24.4706 26.65 23.7656 26.65C23.0606 26.65 22.3823 26.9173 21.8805 27.3965C21.3782 27.8761 21.0938 28.5291 21.0938 29.2125C21.0938 29.8959 21.3782 30.5489 21.8805 31.0285C22.3823 31.5077 23.0606 31.775 23.7656 31.775C24.4706 31.775 25.1489 31.5077 25.6508 31.0285ZM16.5 24.375C17.205 24.375 17.8833 24.1077 18.3852 23.6285C18.8874 23.1489 19.1719 22.4959 19.1719 21.8125C19.1719 21.1291 18.8874 20.4761 18.3852 19.9965C17.8833 19.5173 17.205 19.25 16.5 19.25C15.795 19.25 15.1167 19.5173 14.6148 19.9965C14.1126 20.4761 13.8281 21.1291 13.8281 21.8125C13.8281 22.4959 14.1126 23.1489 14.6148 23.6285C15.1167 24.1077 15.795 24.375 16.5 24.375ZM18.3852 31.0285C18.8874 30.5489 19.1719 29.8959 19.1719 29.2125C19.1719 28.5291 18.8874 27.8761 18.3852 27.3965C17.8833 26.9173 17.205 26.65 16.5 26.65C15.795 26.65 15.1167 26.9173 14.6148 27.3965C14.1126 27.8761 13.8281 28.5291 13.8281 29.2125C13.8281 29.8959 14.1126 30.5489 14.6148 31.0285C15.1167 31.5077 15.795 31.775 16.5 31.775C17.205 31.775 17.8833 31.5077 18.3852 31.0285ZM7.29688 0.75C5.56417 0.75 3.90024 1.40712 2.67167 2.58021C1.4427 3.75367 0.75 5.34776 0.75 7.0125V31.9875C0.75 32.8116 0.920002 33.6272 1.24997 34.3879C1.57993 35.1485 2.06322 35.8388 2.67167 36.4198C3.28009 37.0007 4.00176 37.461 4.79522 37.7748C5.58866 38.0886 6.43869 38.25 7.29688 38.25H25.7031C26.5613 38.25 27.4113 38.0886 28.2048 37.7748C28.9982 37.461 29.7199 37.0007 30.3283 36.4198C30.9368 35.8388 31.4201 35.1485 31.75 34.3879C32.08 33.6272 32.25 32.8115 32.25 31.9875V7.0125C32.25 5.34776 31.5573 3.75367 30.3283 2.58021C29.0998 1.40712 27.4358 0.75 25.7031 0.75H7.29688ZM4.15625 7.0125C4.15625 5.37423 5.55231 4.025 7.29688 4.025H25.7031C27.4477 4.025 28.8438 5.37423 28.8438 7.0125V31.9875C28.8438 32.776 28.5158 33.5347 27.928 34.0959C27.3398 34.6576 26.5397 34.975 25.7031 34.975H7.29688C6.4603 34.975 5.66018 34.6576 5.07199 34.0959C4.48419 33.5347 4.15625 32.776 4.15625 31.9875V7.0125Z" fill="url(#paint0_linear_556_40)" stroke="url(#paint1_linear_556_40)" stroke-width="0.5"/>
<defs>
<linearGradient id="paint0_linear_556_40" x1="7.70823" y1="-0.0139769" x2="7.70823" y2="36.986" gradientUnits="userSpaceOnUse">
<stop offset="0.5" stop-color="#5558B5"/>
<stop offset="1" stop-color="#1C1F6A"/>
</linearGradient>
<linearGradient id="paint1_linear_556_40" x1="16.5" y1="1" x2="16.5" y2="38" gradientUnits="userSpaceOnUse">
<stop offset="0.5" stop-color="#5558B5"/>
<stop offset="1" stop-color="#1C1F6A"/>
</linearGradient>
</defs>
</svg>
