<svg width="32" height="32" viewBox="0 0 32 32" fill="none" xmlns="http://www.w3.org/2000/svg">
<path d="M19.057 17.2285C18.656 17.2385 18.2742 17.3993 17.9905 17.6778C17.7069 17.9562 17.543 18.331 17.5328 18.7247V28.7467C17.5263 28.9524 17.562 29.1572 17.6377 29.349C17.7134 29.5409 17.8276 29.7158 17.9736 29.8635C18.1195 30.0112 18.2942 30.1286 18.4872 30.2087C18.6803 30.2889 18.8878 30.3301 19.0974 30.33H29.267C29.6948 30.33 30.1051 30.1632 30.4076 29.8663C30.7101 29.5694 30.88 29.1666 30.88 28.7467V18.7247C30.8801 18.5189 30.8381 18.3153 30.7565 18.1258C30.6748 17.9363 30.5552 17.7648 30.4048 17.6216C30.2543 17.4783 30.0761 17.3662 29.8806 17.2919C29.6852 17.2176 29.4765 17.1825 29.267 17.1889L19.057 17.2285ZM2.57263 1C2.15188 1.01033 1.7519 1.18169 1.45808 1.47749C1.16426 1.7733 0.999869 2.17013 1 2.58327V12.5658C0.9999 12.7715 1.04191 12.9752 1.12355 13.1647C1.20519 13.3541 1.32478 13.5256 1.47522 13.6689C1.62567 13.8121 1.80391 13.9242 1.99935 13.9985C2.19479 14.0729 2.40346 14.1079 2.61296 14.1015H12.7826C13.1976 14.1015 13.5955 13.9397 13.889 13.6517C14.1824 13.3637 14.3472 12.9731 14.3472 12.5658V2.54368C14.3483 2.34134 14.3086 2.14078 14.2304 1.95354C14.1523 1.7663 14.0372 1.59606 13.8918 1.45261C13.7464 1.30916 13.5736 1.19533 13.3832 1.11766C13.1929 1.03998 12.9888 0.999997 12.7826 1H2.57263Z" stroke="url(#paint0_linear_167_1530)" stroke-width="1.7" stroke-linecap="round" stroke-linejoin="round"/>
<path d="M28.4847 1H19.8473C18.5468 1 17.4924 2.03492 17.4924 3.31157V11.79C17.4924 13.0666 18.5468 14.1015 19.8473 14.1015H28.4847C29.7853 14.1015 30.8396 13.0666 30.8396 11.79V3.31157C30.8396 2.03492 29.7853 1 28.4847 1Z" stroke="url(#paint1_linear_167_1530)" stroke-width="1.7" stroke-linecap="round" stroke-linejoin="round"/>
<path d="M12.7746 17.189H2.57263C1.70409 17.189 1 17.8801 1 18.7326V28.7468C1 29.5994 1.70409 30.2905 2.57263 30.2905H12.7746C13.6431 30.2905 14.3472 29.5994 14.3472 28.7468V18.7326C14.3472 17.8801 13.6431 17.189 12.7746 17.189Z" stroke="url(#paint2_linear_167_1530)" stroke-width="1.7" stroke-linecap="round" stroke-linejoin="round"/>
<path d="M19.8474 21.424H28.4848M19.8474 26.0472H28.4848M3.0646 7.90296H4.60497L5.87114 11.2832L7.58894 3.82605H12.2826M20.1861 3.82605H28.1461M20.9684 11.2832C22.7023 8.30669 22.4523 6.73134 22.4523 3.82605M25.9928 3.82605V11.2832M8.90349 27.1317H12.3633M8.90349 21.2657L10.6374 20.3395V27.1317M2.98395 23.7356H6.44374" stroke="url(#paint3_linear_167_1530)" stroke-width="1.5" stroke-linecap="round" stroke-linejoin="round"/>
<defs>
<linearGradient id="paint0_linear_167_1530" x1="15.94" y1="1" x2="15.94" y2="30.33" gradientUnits="userSpaceOnUse">
<stop stop-color="#5558B5"/>
<stop offset="1" stop-color="#1C1F6A"/>
</linearGradient>
<linearGradient id="paint1_linear_167_1530" x1="24.166" y1="1" x2="24.166" y2="14.1015" gradientUnits="userSpaceOnUse">
<stop stop-color="#5558B5"/>
<stop offset="1" stop-color="#1C1F6A"/>
</linearGradient>
<linearGradient id="paint2_linear_167_1530" x1="7.6736" y1="17.189" x2="7.6736" y2="30.2905" gradientUnits="userSpaceOnUse">
<stop stop-color="#5558B5"/>
<stop offset="1" stop-color="#1C1F6A"/>
</linearGradient>
<linearGradient id="paint3_linear_167_1530" x1="15.7344" y1="3.82605" x2="15.7344" y2="27.1317" gradientUnits="userSpaceOnUse">
<stop stop-color="#5558B5"/>
<stop offset="1" stop-color="#1C1F6A"/>
</linearGradient>
</defs>
</svg>
