<svg width="36" height="40" viewBox="0 0 36 40" fill="none" xmlns="http://www.w3.org/2000/svg">
<path d="M8.51981 7.70117C7.69315 8.44031 7.225 9.44663 7.225 10.5V12.4C7.225 13.4534 7.69315 14.4597 8.51981 15.1988C9.34593 15.9375 10.4631 16.35 11.625 16.35H24.375C25.5369 16.35 26.6541 15.9375 27.4802 15.1988C28.3068 14.4597 28.775 13.4534 28.775 12.4V10.5C28.775 9.44663 28.3068 8.44031 27.4802 7.70117C26.6541 6.96253 25.5369 6.55 24.375 6.55H11.625C10.4631 6.55 9.34593 6.96253 8.51981 7.70117ZM10.9737 9.94007C11.1438 9.78792 11.3779 9.7 11.625 9.7H24.375C24.6221 9.7 24.8561 9.78792 25.0263 9.94007C25.1959 10.0917 25.2875 10.2936 25.2875 10.5V12.4C25.2875 12.6064 25.1959 12.8083 25.0263 12.9599C24.8562 13.1121 24.6221 13.2 24.375 13.2H11.625C11.3779 13.2 11.1438 13.1121 10.9737 12.9599C10.8041 12.8083 10.7125 12.6064 10.7125 12.4V10.5C10.7125 10.2936 10.8041 10.0917 10.9737 9.94007ZM10.0312 24.9C10.7704 24.9 11.4823 24.6376 12.0095 24.1662C12.5373 23.6943 12.8375 23.0504 12.8375 22.375C12.8375 21.6996 12.5373 21.0557 12.0095 20.5838C11.4823 20.1124 10.7704 19.85 10.0312 19.85C9.29207 19.85 8.58025 20.1124 8.05302 20.5838C7.52524 21.0557 7.225 21.6996 7.225 22.375C7.225 23.0504 7.52524 23.6943 8.05302 24.1662C8.58025 24.6376 9.29207 24.9 10.0312 24.9ZM12.0095 31.7662C12.5373 31.2943 12.8375 30.6504 12.8375 29.975C12.8375 29.2996 12.5373 28.6557 12.0095 28.1838C11.4823 27.7124 10.7704 27.45 10.0312 27.45C9.29207 27.45 8.58025 27.7124 8.05302 28.1838C7.52524 28.6557 7.225 29.2996 7.225 29.975C7.225 30.6504 7.52524 31.2943 8.05302 31.7662C8.58025 32.2376 9.29207 32.5 10.0312 32.5C10.7704 32.5 11.4823 32.2376 12.0095 31.7662ZM25.9688 24.9C26.7079 24.9 27.4198 24.6376 27.947 24.1662C28.4748 23.6943 28.775 23.0504 28.775 22.375C28.775 21.6996 28.4748 21.0557 27.947 20.5838C27.4198 20.1124 26.7079 19.85 25.9688 19.85C25.2296 19.85 24.5177 20.1124 23.9905 20.5838C23.4627 21.0557 23.1625 21.6996 23.1625 22.375C23.1625 23.0504 23.4627 23.6943 23.9905 24.1662C24.5177 24.6376 25.2296 24.9 25.9688 24.9ZM27.947 31.7662C28.4748 31.2943 28.775 30.6504 28.775 29.975C28.775 29.2996 28.4748 28.6557 27.947 28.1838C27.4198 27.7124 26.7079 27.45 25.9688 27.45C25.2296 27.45 24.5177 27.7124 23.9905 28.1838C23.4627 28.6557 23.1625 29.2996 23.1625 29.975C23.1625 30.6504 23.4627 31.2943 23.9905 31.7662C24.5177 32.2376 25.2296 32.5 25.9688 32.5C26.7079 32.5 27.4198 32.2376 27.947 31.7662ZM18 24.9C18.7392 24.9 19.451 24.6376 19.9782 24.1662C20.506 23.6943 20.8062 23.0504 20.8062 22.375C20.8062 21.6996 20.506 21.0557 19.9782 20.5838C19.451 20.1124 18.7392 19.85 18 19.85C17.2608 19.85 16.549 20.1124 16.0218 20.5838C15.494 21.0557 15.1937 21.6996 15.1937 22.375C15.1937 23.0504 15.494 23.6943 16.0218 24.1662C16.549 24.6376 17.2608 24.9 18 24.9ZM19.9782 31.7662C20.506 31.2943 20.8062 30.6504 20.8062 29.975C20.8062 29.2996 20.506 28.6557 19.9782 28.1838C19.451 27.7124 18.7392 27.45 18 27.45C17.2608 27.45 16.549 27.7124 16.0218 28.1838C15.494 28.6557 15.1937 29.2996 15.1937 29.975C15.1937 30.6504 15.494 31.2943 16.0218 31.7662C16.549 32.2376 17.2608 32.5 18 32.5C18.7392 32.5 19.451 32.2376 19.9782 31.7662ZM7.90625 0.85C6.0399 0.85 4.24707 1.51275 2.92281 2.69679C1.598 3.88133 0.85 5.49174 0.85 7.175V32.825C0.85 33.6581 1.03355 34.4826 1.3896 35.2511C1.74563 36.0196 2.26692 36.7168 2.92281 37.3032C3.57867 37.8896 4.35641 38.354 5.21125 38.6706C6.06608 38.9872 6.9818 39.15 7.90625 39.15H28.0938C29.0182 39.15 29.9339 38.9872 30.7888 38.6706C31.6436 38.354 32.4213 37.8896 33.0772 37.3032C33.7331 36.7168 34.2544 36.0196 34.6104 35.2511C34.9665 34.4825 35.15 33.6581 35.15 32.825V7.175C35.15 5.49174 34.402 3.88133 33.0772 2.69679C31.7529 1.51275 29.9601 0.85 28.0938 0.85H7.90625ZM4.3375 7.175C4.3375 5.43779 5.92011 4 7.90625 4H28.0938C30.0799 4 31.6625 5.43779 31.6625 7.175V32.825C31.6625 33.6613 31.2911 34.4672 30.6233 35.0643C29.955 35.6619 29.0453 36 28.0938 36H7.90625C6.95468 36 6.04499 35.6619 5.37668 35.0643C4.70891 34.4672 4.3375 33.6613 4.3375 32.825V7.175Z" fill="url(#paint0_linear_556_40)" stroke="url(#paint1_linear_556_40)" stroke-width="0.3"/>
<defs>
<linearGradient id="paint0_linear_556_40" x1="8.35741" y1="-0.0413817" x2="8.35741" y2="37.9586" gradientUnits="userSpaceOnUse">
<stop offset="0.5" stop-color="#5558B5"/>
<stop offset="1" stop-color="#1C1F6A"/>
</linearGradient>
<linearGradient id="paint1_linear_556_40" x1="18" y1="1" x2="18" y2="39" gradientUnits="userSpaceOnUse">
<stop offset="0.5" stop-color="#5558B5"/>
<stop offset="1" stop-color="#1C1F6A"/>
</linearGradient>
</defs>
</svg>
