<svg width="45" height="43" viewBox="0 0 45 43" fill="none" xmlns="http://www.w3.org/2000/svg">
<rect x="0.309967" y="0.823669" width="44.1592" height="42.1645" rx="6" fill="url(#paint0_linear_167_1640)"/>
<path d="M24.5992 19.2597L24.2985 19.5813L24.5795 19.9203L33.5877 30.7853H26.988L21.1627 23.7622L20.8003 23.3253L20.4126 23.74L13.8252 30.7853H11.5649L19.4393 22.3647L19.7401 22.0431L19.459 21.7041L10.9219 11.4066H17.5215L22.8758 17.8661L23.2383 18.3034L23.6261 17.8884L29.6822 11.4066H31.9413L24.5992 19.2597ZM21.7696 22.9262L21.7697 22.9263L27.595 29.9468L27.745 30.1275H27.9798H30.7071H31.7713L31.092 29.3083L23.9871 20.7405L23.9868 20.7401L22.2834 18.6822L22.2829 18.6816L16.9369 12.245L16.7869 12.0644H16.5522H13.8249H12.7606L13.4401 12.8836L20.0635 20.869L20.0636 20.869L21.7696 22.9262Z" stroke="white"/>
<defs>
<linearGradient id="paint0_linear_167_1640" x1="22.3895" y1="0.823669" x2="22.3895" y2="42.9881" gradientUnits="userSpaceOnUse">
<stop stop-color="#5558B5"/>
<stop offset="1" stop-color="#1C1F6A"/>
</linearGradient>
</defs>
</svg>
