<svg width="45" height="43" viewBox="0 0 45 43" fill="none" xmlns="http://www.w3.org/2000/svg">
<rect x="0.308594" y="0.82373" width="44.1592" height="42.1645" rx="6" fill="#193E7F"/>
<path d="M24.5967 19.2598L24.296 19.5815L24.5771 19.9204L33.5852 30.7854H26.9856L21.1602 23.7623L20.7978 23.3254L20.4101 23.7401L13.8227 30.7854H11.5625L19.4369 22.3648L19.7376 22.0432L19.4566 21.7042L10.9195 11.4067H17.5191L22.8733 17.8662L23.2358 18.3035L23.6236 17.8885L29.6798 11.4067H31.9389L24.5967 19.2598ZM21.7671 22.9263L21.7672 22.9264L27.5926 29.9469L27.7426 30.1276H27.9774H30.7047H31.7689L31.0896 29.3085L23.9847 20.7406L23.9844 20.7402L22.281 18.6823L22.2804 18.6817L16.9344 12.2451L16.7845 12.0645H16.5498H13.8225H12.7581L13.4376 12.8838L20.0611 20.8691L20.0611 20.8691L21.7671 22.9263Z" stroke="white"/>
</svg>
