<svg width="48" height="43" viewBox="0 0 48 43" fill="none" xmlns="http://www.w3.org/2000/svg">
<rect y="0.253418" width="47.3134" height="42.1645" rx="6" fill="url(#paint0_linear_167_1632)"/>
<path fill-rule="evenodd" clip-rule="evenodd" d="M21.7409 16.9075C21.6075 16.8289 21.4552 16.7864 21.2996 16.7844C21.144 16.7825 20.9907 16.8211 20.8552 16.8964C20.7198 16.9716 20.6071 17.0809 20.5288 17.2129C20.4504 17.3449 20.4091 17.4949 20.4091 17.6477V24.5549C20.4091 24.7077 20.4504 24.8577 20.5288 24.9897C20.6071 25.1217 20.7198 25.231 20.8552 25.3062C20.9907 25.3815 21.144 25.4201 21.2996 25.4182C21.4552 25.4162 21.6075 25.3737 21.7409 25.2951L27.603 21.8415C27.7331 21.7648 27.8408 21.6563 27.9156 21.5266C27.9904 21.3969 28.0296 21.2503 28.0296 21.1013C28.0296 20.9522 27.9904 20.8057 27.9156 20.676C27.8408 20.5463 27.7331 20.4378 27.603 20.3611L21.7409 16.9075ZM25.441 21.1013L22.1677 23.0296V19.173L25.441 21.1013Z" fill="white"/>
<path fill-rule="evenodd" clip-rule="evenodd" d="M29.5304 12.6296C25.6049 12.3281 21.6614 12.3281 17.736 12.6296L15.1086 12.8322C14.3322 12.8917 13.5985 13.2045 13.0242 13.7208C12.4499 14.2371 12.0681 14.9273 11.9396 15.6815C11.3296 19.2699 11.3296 22.9327 11.9396 26.5211C12.0681 27.2752 12.4499 27.9654 13.0242 28.4818C13.5985 28.9981 14.3322 29.3109 15.1086 29.3703L17.7348 29.5729C21.6612 29.8745 25.6052 29.8745 29.5316 29.5729L32.1578 29.3703C32.9341 29.3109 33.6679 28.9981 34.2422 28.4818C34.8165 27.9654 35.1983 27.2752 35.3268 26.5211C35.9365 22.9328 35.9365 19.2697 35.3268 15.6815C35.1983 14.9273 34.8165 14.2371 34.2422 13.7208C33.6679 13.2045 32.9341 12.8917 32.1578 12.8322L29.5304 12.6296ZM17.8731 14.3518C21.7081 14.0572 25.5606 14.0572 29.3956 14.3518L32.0218 14.5533C32.8143 14.6143 33.4627 15.198 33.5928 15.967C34.1726 19.3662 34.1726 22.8364 33.5928 26.2356C33.5293 26.6097 33.3401 26.9521 33.0554 27.2083C32.7707 27.4645 32.4068 27.6197 32.0218 27.6493L29.3956 27.8507C25.5606 28.1454 21.7081 28.1454 17.8731 27.8507L15.2469 27.6493C14.8619 27.6197 14.498 27.4645 14.2133 27.2083C13.9286 26.9521 13.7394 26.6097 13.6759 26.2356C13.0961 22.8364 13.0961 19.3662 13.6759 15.967C13.7394 15.5929 13.9286 15.2505 14.2133 14.9943C14.498 14.7381 14.8619 14.5828 15.2469 14.5533L17.8731 14.3518Z" fill="white"/>
<defs>
<linearGradient id="paint0_linear_167_1632" x1="23.6567" y1="0.253418" x2="23.6567" y2="42.4179" gradientUnits="userSpaceOnUse">
<stop stop-color="#5558B5"/>
<stop offset="1" stop-color="#1C1F6A"/>
</linearGradient>
</defs>
</svg>
