<svg width="48" height="43" viewBox="0 0 48 43" fill="none" xmlns="http://www.w3.org/2000/svg">
<rect y="0.253418" width="47.3134" height="42.1645" rx="6" fill="#193E7F"/>
<path fill-rule="evenodd" clip-rule="evenodd" d="M21.7381 16.9076C21.6047 16.8289 21.4524 16.7864 21.2968 16.7845C21.1412 16.7825 20.9878 16.8212 20.8524 16.8964C20.717 16.9717 20.6043 17.0809 20.526 17.2129C20.4476 17.3449 20.4063 17.495 20.4062 17.6478V24.5549C20.4063 24.7077 20.4476 24.8578 20.526 24.9898C20.6043 25.1218 20.717 25.231 20.8524 25.3063C20.9878 25.3815 21.1412 25.4202 21.2968 25.4182C21.4524 25.4163 21.6047 25.3738 21.7381 25.2952L27.6002 21.8416C27.7303 21.7649 27.838 21.6564 27.9128 21.5266C27.9875 21.3969 28.0268 21.2504 28.0268 21.1014C28.0268 20.9523 27.9875 20.8058 27.9128 20.6761C27.838 20.5464 27.7303 20.4379 27.6002 20.3611L21.7381 16.9076ZM25.4382 21.1014L22.1649 23.0296V19.1731L25.4382 21.1014Z" fill="white"/>
<path fill-rule="evenodd" clip-rule="evenodd" d="M29.5288 12.6297C25.6033 12.3282 21.6598 12.3282 17.7343 12.6297L15.1069 12.8323C14.3306 12.8917 13.5968 13.2045 13.0225 13.7209C12.4482 14.2372 12.0664 14.9274 11.9379 15.6815C11.328 19.2699 11.328 22.9328 11.9379 26.5212C12.0664 27.2753 12.4482 27.9655 13.0225 28.4818C13.5968 28.9982 14.3306 29.311 15.1069 29.3704L17.7331 29.573C21.6595 29.8746 25.6035 29.8746 29.5299 29.573L32.1561 29.3704C32.9325 29.311 33.6662 28.9982 34.2405 28.4818C34.8148 27.9655 35.1967 27.2753 35.3252 26.5212C35.9348 22.9329 35.9348 19.2698 35.3252 15.6815C35.1967 14.9274 34.8148 14.2372 34.2405 13.7209C33.6662 13.2045 32.9325 12.8917 32.1561 12.8323L29.5288 12.6297ZM17.8715 14.3519C21.7064 14.0573 25.559 14.0573 29.3939 14.3519L32.0201 14.5533C32.8127 14.6144 33.461 15.198 33.5912 15.967C34.171 19.3662 34.171 22.8365 33.5912 26.2357C33.5277 26.6097 33.3385 26.9521 33.0538 27.2084C32.769 27.4646 32.4052 27.6198 32.0201 27.6494L29.3939 27.8508C25.559 28.1454 21.7064 28.1454 17.8715 27.8508L15.2453 27.6494C14.8603 27.6198 14.4964 27.4646 14.2117 27.2084C13.9269 26.9521 13.7377 26.6097 13.6742 26.2357C13.0944 22.8365 13.0944 19.3662 13.6742 15.967C13.7377 15.593 13.9269 15.2505 14.2117 14.9943C14.4964 14.7381 14.8603 14.5829 15.2453 14.5533L17.8715 14.3519Z" fill="white"/>
</svg>
